<?xml version="1.0" standalone="no"?>
<!DOCTYPE svg PUBLIC "-//W3C//DTD SVG 20010904//EN"
 "http://www.w3.org/TR/2001/REC-SVG-20010904/DTD/svg10.dtd">
<svg version="1.0" xmlns="http://www.w3.org/2000/svg"
 width="300.000000pt" height="315.000000pt" viewBox="0 0 300.000000 315.000000"
 preserveAspectRatio="xMidYMid meet">
<metadata>
Created by potrace 1.10, written by Peter Selinger 2001-2011
</metadata>
<g transform="translate(0.000000,315.000000) scale(0.100000,-0.100000)"
fill="#ffffff" stroke="none">
<path d="M1387 3100 c3 -11 10 -23 16 -27 6 -4 8 2 5 15 -5 19 -2 22 20 22 22
0 34 -11 62 -55 19 -30 38 -55 43 -55 4 0 7 -21 7 -47 0 -25 3 -43 8 -39 4 4
7 49 7 99 0 71 3 91 13 89 8 -1 11 2 7 8 -8 13 -62 13 -70 1 -3 -6 6 -8 21 -5
19 3 24 1 18 -8 -4 -7 -7 -25 -6 -40 3 -39 -8 -35 -43 17 -27 41 -34 45 -72
45 -36 0 -41 -2 -36 -20z"/>
<path d="M1420 3063 c0 -11 7 -27 16 -34 9 -7 31 -37 50 -66 32 -50 44 -63 44
-45 0 4 -25 43 -55 87 -37 52 -55 72 -55 58z"/>
<path d="M160 3014 c0 -3 108 -113 240 -245 132 -132 240 -235 240 -229 0 11
-463 480 -474 480 -3 0 -6 -3 -6 -6z"/>
<path d="M1408 2982 c-3 -24 -14 -50 -25 -57 -17 -13 -17 -14 -1 -20 9 -4 25
-5 35 -2 11 3 6 5 -12 6 -25 1 -27 3 -13 12 12 7 24 6 38 -1 13 -7 20 -7 20 0
0 5 -7 10 -14 10 -11 0 -16 14 -18 48 l-3 47 -7 -43z"/>
<path d="M2547 2782 c-131 -131 -234 -241 -230 -245 7 -8 483 461 483 475 0 5
-3 8 -8 8 -4 0 -114 -107 -245 -238z m243 225 c0 -1 -107 -108 -237 -237
l-238 -235 235 238 c218 220 240 242 240 234z"/>
<path d="M1486 2800 c13 -221 21 -331 25 -334 2 -2 25 -6 50 -9 36 -5 46 -3
46 9 0 11 -9 13 -36 8 -24 -3 -31 -2 -23 4 11 7 9 10 -7 15 -18 4 -21 13 -21
63 0 32 -5 83 -10 113 -6 31 -15 92 -20 136 l-9 80 5 -85z"/>
<path d="M1453 2803 c-6 -26 -8 -54 -4 -61 5 -8 4 -35 0 -60 -5 -25 -5 -99 0
-166 5 -67 10 -247 10 -400 1 -154 4 -283 7 -287 2 -4 -9 -9 -24 -11 -31 -4
-31 -5 -32 72 -1 25 -5 61 -10 80 -8 29 -9 25 -5 -26 l4 -61 -42 39 c-23 22
-52 46 -64 55 -13 8 -23 21 -23 29 0 16 50 44 97 54 30 7 32 6 36 -24 4 -29 5
-29 3 4 -1 32 -3 35 -31 33 l-30 -2 29 13 c22 10 25 14 12 19 -8 3 -18 2 -21
-4 -5 -8 -69 -39 -81 -39 -2 0 -4 7 -4 16 0 8 5 12 10 9 6 -3 10 -1 10 4 0 28
-32 3 -37 -28 -1 -8 -8 -18 -15 -22 -9 -6 -9 -9 -1 -9 6 0 15 5 18 10 3 6 14
10 23 10 11 0 6 -8 -15 -21 -18 -12 -33 -24 -32 -27 0 -4 34 -34 74 -67 64
-51 74 -65 77 -95 2 -24 -3 -41 -19 -58 -29 -31 -36 -65 -23 -113 13 -49 51
-86 94 -94 l31 -6 -3 -315 -3 -315 48 7 c80 12 106 23 48 21 -48 -2 -50 -1
-56 28 l-6 30 -5 -35 c-3 -19 -5 105 -6 276 l-1 312 25 -2 c19 -1 24 -6 24
-28 0 -16 5 -28 10 -28 6 0 10 -6 10 -13 0 -7 12 -20 28 -29 15 -9 46 -35 69
-57 25 -25 45 -37 49 -30 3 6 -3 17 -15 26 -12 8 -29 23 -39 32 -9 10 -34 30
-54 45 -33 24 -38 34 -38 68 0 36 -1 38 -21 28 -11 -7 -23 -9 -26 -6 -3 3 5
10 18 15 32 12 56 41 61 71 l3 25 512 5 c281 3 514 8 517 11 4 3 -1 12 -11 20
-10 8 -14 9 -10 2 6 -9 -3 -11 -33 -7 -24 3 -40 1 -40 -6 0 -6 -24 -9 -57 -9
-53 2 -55 2 -23 10 36 8 -31 6 -145 -5 l-50 -5 60 14 60 14 -71 -5 -71 -5 5
30 c2 17 8 29 12 26 4 -2 5 7 2 21 -6 33 -10 27 -21 -30 -7 -38 -6 -48 8 -56
10 -6 -98 -9 -312 -7 -212 1 -327 -1 -328 -8 0 -5 -5 1 -10 14 -15 39 -5 48
63 56 40 4 56 10 45 14 -16 6 -13 14 28 64 26 31 51 57 56 57 5 0 16 -15 25
-32 l17 -33 11 25 c6 14 15 28 21 32 6 5 4 8 -5 8 -13 0 -13 2 -1 9 8 5 19 7
25 5 7 -3 21 4 31 14 11 10 25 19 30 20 6 1 17 7 26 14 8 7 22 14 30 16 8 2
19 10 25 18 10 12 16 9 37 -20 14 -18 23 -36 20 -40 -4 -3 -1 -6 6 -6 7 0 9
-5 6 -10 -4 -6 0 -22 9 -35 20 -30 20 -36 1 -29 -8 3 -20 2 -27 -2 -7 -5 -26
-9 -43 -10 -16 -1 -43 -7 -60 -14 -16 -7 -37 -12 -45 -11 -11 2 -12 0 -3 -9 9
-10 18 -9 43 4 18 8 36 14 40 11 7 -4 46 5 82 20 13 5 18 -1 24 -30 5 -26 9
-33 15 -23 12 18 11 41 -1 33 -5 -3 -10 -1 -10 5 0 6 11 15 25 22 23 10 26 28
4 28 -6 0 -7 -4 -4 -10 3 -5 2 -10 -4 -10 -11 0 -35 37 -36 55 -1 20 -16 55
-24 55 -4 0 -6 12 -5 28 2 38 2 39 17 39 6 0 19 4 28 7 12 5 20 -1 29 -23 7
-17 16 -29 20 -26 9 6 23 -25 15 -33 -3 -3 -5 0 -5 6 0 7 -5 12 -11 12 -8 0
-8 -4 0 -14 20 -24 30 -73 18 -86 -9 -9 -9 -11 2 -8 14 3 45 -79 32 -84 -4 -2
-4 -14 0 -28 l7 -25 2 28 c1 15 3 35 3 45 1 9 8 22 15 27 15 12 6 69 -9 59 -5
-3 -12 2 -15 11 -6 13 -8 14 -15 3 -7 -10 -9 -10 -9 3 0 24 11 30 28 16 13
-10 14 -9 7 3 -5 8 -10 25 -11 39 -2 13 -8 29 -14 35 -8 8 -9 6 -4 -9 7 -19 6
-19 -12 -2 -16 15 -17 19 -4 27 12 7 12 12 2 22 -6 6 -12 8 -12 4 0 -5 -7 -3
-15 4 -11 9 -12 16 -4 26 8 9 5 18 -10 33 -12 12 -18 21 -13 21 4 1 -4 10 -17
20 -13 11 -20 20 -16 20 5 0 0 9 -10 20 -18 20 -41 28 -30 11 3 -6 -5 -8 -18
-5 -17 3 -31 -5 -51 -26 -15 -17 -24 -36 -20 -42 4 -6 3 -8 -4 -4 -15 9 -173
-180 -165 -199 3 -11 1 -13 -10 -9 -10 4 -32 -15 -67 -58 -29 -35 -57 -65 -61
-66 -5 -2 -6 -8 -3 -14 10 -16 -93 -4 -113 14 -10 9 -31 20 -46 23 l-28 7 3
454 c2 250 0 454 -3 454 -3 0 -4 25 -1 55 2 30 2 55 0 55 -3 0 -10 -21 -15
-47z m4 -180 c-3 -10 -5 -4 -5 12 0 17 2 24 5 18 2 -7 2 -21 0 -30z m629 -435
c4 -7 2 -8 -4 -4 -7 4 -19 3 -28 -2 -12 -7 -13 -11 -5 -17 9 -5 9 -11 -1 -23
-12 -15 -11 -16 5 -3 13 10 17 10 17 1 0 -7 7 -10 16 -6 9 3 25 -1 37 -9 12
-8 16 -15 9 -15 -6 0 -12 -4 -12 -10 0 -5 8 -7 18 -4 13 4 14 4 4 -4 -12 -8
-12 -13 0 -31 7 -12 19 -19 27 -16 11 5 12 3 1 -10 -11 -14 -16 -11 -37 25
-13 22 -22 44 -19 48 3 5 -1 9 -9 9 -10 0 -11 -5 -4 -18 12 -23 12 -42 -1 -34
-5 3 -21 -6 -34 -20 -14 -15 -30 -24 -36 -20 -5 3 -13 -1 -16 -9 -3 -9 -10
-13 -15 -10 -5 3 -9 0 -9 -6 0 -6 -4 -9 -9 -5 -6 3 -20 -5 -32 -17 -12 -13
-18 -16 -14 -8 8 13 7 13 -11 0 -10 -8 -22 -20 -26 -26 -4 -6 -19 -10 -33 -9
-14 2 -25 0 -26 -3 -2 -22 -10 -56 -13 -60 -11 -11 -25 39 -17 60 8 21 138
188 146 188 14 0 34 -14 30 -20 -3 -5 4 -15 15 -23 11 -7 17 -16 14 -19 -3 -3
-1 -9 5 -12 5 -4 12 -2 16 4 3 5 -3 15 -14 21 -18 12 -18 15 -4 38 10 18 11
21 1 10 -11 -14 -17 -15 -30 -5 -14 10 -15 16 -5 36 19 38 88 63 103 38z m12
-39 c-7 -4 -18 -3 -25 3 -22 18 -14 28 12 16 18 -8 22 -14 13 -19z m-768 -89
c-8 -5 -19 -10 -25 -10 -5 0 -3 5 5 10 8 5 20 10 25 10 6 0 3 -5 -5 -10z m874
-95 c-7 -16 -24 -21 -24 -6 0 8 7 13 27 20 1 1 0 -6 -3 -14z m22 -87 c13 -3
13 -5 0 -23 -15 -20 -15 -20 -16 2 0 12 -5 25 -10 28 -6 4 -7 12 -3 18 5 8 9
7 11 -5 2 -9 10 -18 18 -20z m-691 -101 c34 -29 45 -96 21 -132 -21 -32 -72
-58 -101 -51 -36 9 -82 53 -88 83 -6 33 7 70 35 101 30 31 97 31 133 -1z"/>
<path d="M1810 1910 c0 -5 5 -10 11 -10 5 0 7 5 4 10 -3 6 -8 10 -11 10 -2 0
-4 -4 -4 -10z"/>
<path d="M1435 1778 c-73 -39 -73 -123 0 -154 46 -19 87 -3 111 42 18 33 18
35 0 68 -11 21 -31 39 -49 45 -36 13 -37 13 -62 -1z m58 -10 c36 -19 47 -35
47 -67 0 -61 -86 -95 -127 -49 -32 35 -14 100 32 118 27 11 23 12 48 -2z"/>
<path d="M739 2583 c-13 -17 -13 -17 6 -3 11 8 22 16 24 17 2 2 0 3 -6 3 -6 0
-17 -8 -24 -17z"/>
<path d="M740 2563 c-15 -8 -24 -19 -22 -30 3 -13 1 -14 -10 -6 -10 9 -18 8
-32 -3 -23 -16 -21 -20 19 -29 29 -6 29 -6 7 7 -12 8 -20 17 -16 20 3 4 16 1
28 -7 16 -10 30 -12 51 -6 22 7 24 10 9 10 -11 1 -29 8 -40 16 -18 15 -17 16
14 10 31 -6 39 0 24 21 -5 7 -15 6 -32 -3z"/>
<path d="M2230 2557 c12 -16 10 -21 -12 -42 -33 -31 -45 -19 -16 14 20 22 20
23 2 8 -11 -9 -26 -17 -32 -17 -18 0 -14 -11 14 -37 25 -23 27 -23 45 -7 13
12 16 20 8 25 -7 4 -8 9 -1 13 22 13 22 -28 0 -52 -13 -14 -17 -22 -10 -18 8
5 16 -2 22 -18 5 -14 14 -26 20 -26 14 0 13 17 -2 23 -10 3 -10 9 -2 23 13 23
58 29 50 7 -3 -8 -1 -11 4 -8 6 3 10 -1 10 -9 0 -8 -9 -18 -21 -21 -11 -4 -18
-9 -16 -12 3 -2 15 0 26 7 43 22 14 78 -34 66 -24 -6 -25 -5 -13 14 11 18 9
24 -22 52 -18 18 -28 25 -20 15z m38 -52 c-3 -3 -9 2 -12 12 -6 14 -5 15 5 6
7 -7 10 -15 7 -18z m-43 -15 c-3 -5 -11 -10 -16 -10 -6 0 -7 5 -4 10 3 6 11
10 16 10 6 0 7 -4 4 -10z"/>
<path d="M1232 2513 c2 -10 10 -18 18 -18 22 0 18 29 -3 33 -14 3 -18 -1 -15
-15z m28 -3 c0 -5 -2 -10 -4 -10 -3 0 -8 5 -11 10 -3 6 -1 10 4 10 6 0 11 -4
11 -10z"/>
<path d="M1674 2519 c-10 -17 13 -36 27 -22 12 12 4 33 -11 33 -5 0 -12 -5
-16 -11z m26 -3 c0 -3 -4 -8 -10 -11 -5 -3 -10 -1 -10 4 0 6 5 11 10 11 6 0
10 -2 10 -4z"/>
<path d="M656 2476 c17 -8 34 -21 37 -31 6 -13 2 -13 -22 4 -35 25 -45 26 -65
5 -15 -14 -14 -18 9 -36 14 -11 25 -26 25 -34 0 -8 5 -12 11 -8 7 4 1 17 -16
34 -28 29 -27 50 3 50 15 0 15 -2 2 -10 -13 -8 -12 -12 7 -31 l21 -22 27 25
27 25 -35 22 c-19 11 -41 21 -48 21 -8 -1 0 -7 17 -14z m20 -53 c-7 -7 -26 7
-26 19 0 6 6 6 15 -2 9 -7 13 -15 11 -17z"/>
<path d="M1399 2481 c11 -7 11 -9 0 -14 -8 -3 -2 -5 12 -4 14 1 26 7 26 14 0
7 -12 13 -26 13 -19 0 -22 -3 -12 -9z"/>
<path d="M1344 2471 c4 -6 -5 -13 -21 -17 -25 -7 -25 -8 -8 -15 11 -4 29 -8
40 -8 20 0 20 0 0 9 -19 8 -19 9 3 9 27 1 25 24 -3 29 -10 3 -15 0 -11 -7z"/>
<path d="M1285 2460 c-3 -5 -12 -7 -20 -3 -8 3 -15 1 -15 -5 0 -12 58 -37 67
-28 3 3 -1 6 -10 6 -26 0 -30 20 -5 29 16 7 18 10 6 10 -9 1 -19 -3 -23 -9z"/>
<path d="M1628 2463 c7 -3 16 -2 19 1 4 3 -2 6 -13 5 -11 0 -14 -3 -6 -6z"/>
<path d="M1663 2446 c1 -6 -9 -12 -23 -13 -18 -2 -20 -1 -8 5 10 4 -13 8 -53
9 l-71 1 6 -46 c4 -26 10 -105 15 -175 5 -70 10 -129 12 -131 2 -2 18 -6 34
-10 29 -6 29 -6 7 7 -18 10 -20 15 -10 25 11 11 10 12 -4 7 -16 -6 -18 0 -20
51 -2 81 -4 106 -11 136 -9 33 13 43 59 28 31 -10 33 -14 30 -48 -2 -20 -11
-54 -20 -75 -12 -27 -14 -43 -7 -55 9 -15 11 -15 12 3 5 43 6 51 17 78 7 15
15 39 18 53 6 25 24 43 24 24 0 -6 6 -10 13 -8 6 1 24 -6 39 -16 15 -10 32
-15 38 -11 5 3 10 2 10 -4 0 -5 9 -8 20 -6 26 5 26 -7 0 -23 -12 -7 -18 -17
-15 -22 3 -6 1 -10 -5 -10 -6 0 -8 -5 -5 -11 5 -6 12 -4 20 8 7 10 11 21 9 25
-3 5 2 8 12 8 11 0 15 6 11 20 -3 11 -1 20 5 20 5 0 7 4 4 9 -3 5 1 11 9 14 8
4 12 15 10 26 -3 14 2 19 16 18 10 -1 20 -5 20 -9 1 -4 2 -11 3 -15 3 -18 47
-52 60 -47 8 3 17 1 21 -5 3 -6 0 -11 -7 -11 -9 0 -9 -3 2 -10 13 -8 12 -12
-6 -30 -29 -30 -53 -30 -80 -3 -13 13 -29 21 -35 18 -6 -4 -3 -12 8 -20 10 -7
20 -12 23 -10 3 2 11 -4 17 -14 9 -15 -1 -28 -73 -90 -51 -44 -95 -74 -111
-76 -36 -4 -98 25 -81 38 9 6 7 7 -5 3 -10 -3 -26 -6 -35 -6 -9 -1 0 -7 20
-14 21 -8 50 -22 65 -31 l27 -18 -50 -43 c-74 -65 -84 -59 -84 52 0 40 -4 64
-11 64 -11 0 -6 -94 9 -169 l7 -34 70 58 c39 32 72 60 74 62 2 1 -2 10 -10 19
-13 16 -12 16 8 6 17 -10 24 -9 30 1 4 7 38 36 75 66 37 29 76 63 87 77 10 13
23 24 27 24 5 0 22 12 37 26 24 20 27 27 17 39 -7 8 -9 15 -5 15 4 0 2 7 -5
15 -7 9 -10 18 -7 21 6 6 25 -25 25 -41 1 -23 23 -12 84 45 36 33 69 60 73 60
4 0 -21 -30 -54 -67 -52 -57 -74 -93 -57 -93 7 0 121 155 118 162 -1 4 7 12
18 18 11 6 20 15 20 21 0 5 -41 -24 -92 -64 l-92 -75 -20 26 c-12 15 -20 29
-19 33 1 3 -10 5 -25 3 -14 -1 -33 1 -42 6 -12 8 -12 9 5 10 16 0 17 2 5 9 -8
6 -18 7 -22 5 -4 -3 -8 1 -8 8 0 11 -2 10 -9 0 -6 -10 -10 -8 -14 9 -4 13 -9
20 -13 16 -4 -4 -13 -2 -19 3 -9 8 -14 6 -19 -5 -3 -8 -11 -15 -18 -15 -10 0
-9 3 1 9 8 5 11 16 7 26 -5 14 -9 15 -22 4 -12 -10 -17 -10 -23 0 -5 7 -12 13
-17 14 -5 1 -8 5 -6 10 2 8 -1 9 -40 11 -15 1 -26 -3 -25 -8z m42 -6 c-3 -5 5
-15 19 -21 14 -7 23 -16 20 -20 -6 -11 44 -31 57 -24 17 11 49 14 49 5 0 -5
-4 -11 -9 -14 -5 -4 -8 -13 -7 -22 1 -9 -7 -27 -18 -39 -16 -18 -25 -21 -38
-14 -10 6 -24 7 -30 3 -7 -5 -8 -3 -3 6 6 10 4 12 -8 7 -10 -3 -17 -2 -17 2 0
5 -13 14 -29 19 -26 9 -28 14 -27 59 1 29 6 48 13 48 6 0 15 3 19 8 11 10 16
9 9 -3z m-107 -11 c41 -8 51 -15 55 -35 2 -13 0 -27 -5 -30 -5 -3 -6 -14 -3
-24 6 -17 4 -17 -32 1 -20 10 -48 19 -60 19 -20 0 -23 5 -23 40 0 44 -1 44 68
29z m187 -28 c-3 -6 -11 -11 -17 -11 -6 0 -6 6 2 15 14 17 26 13 15 -4z m169
-88 c-5 -5 -11 -12 -15 -16 -3 -4 -11 -2 -17 5 -9 11 -5 14 15 16 15 1 22 -1
17 -5z"/>
<path d="M1670 2410 c0 -5 7 -7 15 -4 8 4 15 8 15 10 0 2 -7 4 -15 4 -8 0 -15
-4 -15 -10z"/>
<path d="M2281 2447 c-8 -10 -7 -14 4 -14 8 0 15 6 15 14 0 7 -2 13 -4 13 -2
0 -9 -6 -15 -13z"/>
<path d="M1030 2430 c0 -15 5 -20 18 -18 9 2 17 10 17 18 0 8 -8 16 -17 18
-13 2 -18 -3 -18 -18z m30 0 c0 -5 -4 -10 -10 -10 -5 0 -10 5 -10 10 0 6 5 10
10 10 6 0 10 -4 10 -10z"/>
<path d="M1223 2439 c1 -6 -4 -14 -12 -17 -9 -3 -11 0 -6 9 6 11 5 12 -6 2
-16 -16 -33 -17 -23 -2 3 6 -5 3 -20 -6 -14 -10 -26 -25 -26 -34 0 -13 -2 -13
-9 -2 -7 11 -15 10 -45 -8 -37 -23 -44 -35 -26 -46 6 -4 7 -11 4 -17 -4 -5 4
-5 16 2 20 11 25 9 41 -11 10 -13 21 -20 26 -16 4 5 0 14 -9 21 -10 7 -14 17
-10 21 4 4 -9 5 -28 2 -19 -3 -30 -3 -23 -1 7 3 9 12 6 20 -7 19 21 28 44 14
16 -10 16 -10 -4 -5 -12 3 -24 1 -27 -4 -4 -6 5 -9 21 -7 17 1 27 7 25 15 -2
9 3 11 13 7 19 -7 66 14 58 27 -3 5 4 6 18 2 20 -5 21 -4 9 5 -12 10 -10 11
10 6 14 -3 28 -6 31 -6 8 0 22 -41 19 -55 -1 -5 -3 -16 -3 -23 0 -7 -8 -10
-18 -7 -9 3 -24 -1 -32 -9 -8 -8 -17 -13 -20 -10 -8 9 -47 -15 -46 -29 0 -9 2
-9 6 1 2 6 8 10 13 7 11 -7 60 15 60 26 0 5 10 8 23 6 25 -2 59 -59 50 -84 -5
-12 -3 -14 6 -8 10 6 11 2 6 -16 -6 -19 -5 -22 5 -12 12 11 5 39 -28 116 -2 4
11 14 30 22 18 8 26 14 18 15 -9 0 -26 -7 -39 -16 -22 -16 -23 -16 -17 4 8 25
-19 82 -38 82 -8 0 -16 7 -20 15 -6 17 -27 21 -23 4z m-47 -51 c-18 -10 -36
-2 -35 15 0 9 2 9 6 0 7 -20 23 -15 16 5 -6 15 -5 15 11 3 15 -13 16 -15 2
-23z"/>
<path d="M1386 2441 c-3 -4 6 -6 19 -3 14 2 25 6 25 8 0 8 -39 4 -44 -5z"/>
<path d="M1874 2439 c-10 -17 13 -36 27 -22 12 12 4 33 -11 33 -5 0 -12 -5
-16 -11z m26 -9 c0 -5 -4 -10 -10 -10 -5 0 -10 5 -10 10 0 6 5 10 10 10 6 0
10 -4 10 -10z"/>
<path d="M1431 2404 c0 -11 3 -14 6 -6 3 7 2 16 -1 19 -3 4 -6 -2 -5 -13z"/>
<path d="M780 2385 c27 -29 27 -29 27 -12 0 7 -12 18 -25 25 l-25 12 23 -25z"/>
<path d="M818 2358 c-5 -13 19 -52 59 -97 19 -22 20 -27 8 -41 -10 -11 -11
-20 -3 -33 7 -14 7 -22 -2 -30 -10 -9 -12 -8 -7 5 8 22 -11 34 -26 18 -9 -10
-9 -11 3 -5 8 5 2 -4 -13 -18 -15 -15 -26 -31 -23 -36 3 -5 -1 -12 -10 -15 -8
-3 -12 -10 -9 -16 3 -5 1 -10 -4 -10 -6 0 -3 -8 7 -18 10 -11 20 -14 24 -8 4
6 12 5 22 -3 8 -7 19 -10 25 -7 14 9 22 -23 10 -46 -6 -11 -8 -22 -5 -26 3 -3
0 -12 -8 -21 -21 -24 -29 -58 -15 -67 9 -5 10 -2 6 9 -3 10 -2 17 3 17 5 0 7
7 4 15 -4 8 -1 15 4 15 13 0 27 36 31 80 1 9 4 11 9 5 4 -5 14 -11 22 -13 10
-1 9 2 -4 13 -13 10 -15 15 -6 15 7 0 10 3 7 7 -4 3 2 13 13 20 11 8 18 18 15
23 -6 10 21 33 34 28 5 -1 37 -34 71 -72 53 -61 60 -73 55 -100 -3 -17 -7 -42
-9 -56 -2 -14 -4 -30 -4 -37 -1 -6 -9 -19 -18 -27 -14 -15 -14 -16 1 -16 13 0
16 -6 12 -21 -6 -21 -4 -22 94 -17 96 5 124 12 103 26 -5 4 -34 35 -63 70 -30
34 -58 62 -62 62 -5 0 -14 -10 -20 -22 -11 -21 -11 -22 5 -9 15 13 22 9 61
-35 58 -64 57 -74 -4 -74 -27 0 -55 -2 -63 -5 -7 -3 -19 -1 -26 4 -11 7 -11
15 2 46 20 47 20 58 0 25 l-15 -25 6 25 c4 14 7 40 7 58 1 17 5 32 10 32 4 0
8 -4 8 -10 0 -5 5 -10 11 -10 6 0 9 8 7 18 -2 9 -10 16 -17 14 -7 -1 -10 1 -7
6 3 4 -66 91 -153 193 -87 101 -157 186 -155 188 2 2 30 -20 64 -49 53 -46 62
-51 78 -39 15 13 16 12 3 -4 -12 -15 -10 -20 13 -38 14 -11 32 -26 39 -32 7
-7 42 -37 77 -67 36 -30 71 -60 78 -67 7 -7 19 -13 25 -13 12 0 -24 35 -111
107 -39 33 -51 62 -23 55 7 -1 10 2 7 7 -3 5 4 11 15 14 12 3 18 10 14 17 -5
7 -11 8 -19 1 -9 -7 -17 -7 -26 2 -12 10 -12 9 -2 -4 10 -13 9 -19 -3 -29 -23
-19 -69 14 -62 46 2 13 0 21 -4 18 -5 -3 -9 0 -9 5 0 16 26 13 40 -4 7 -8 18
-15 24 -15 6 0 3 7 -7 14 -11 8 -14 17 -8 20 5 4 8 16 6 28 -6 29 -13 34 -21
14 -5 -13 -9 -14 -23 -4 -13 10 -14 10 -3 -2 16 -19 15 -33 -2 -27 -8 3 -20
-2 -28 -11 -11 -13 -11 -14 1 -7 10 5 12 4 7 -4 -9 -13 -16 -10 -76 37 -25 20
-50 39 -57 44 -7 5 -13 4 -15 -4z m208 -43 c-3 -20 -16 -31 -16 -13 0 13 8 28
16 28 1 0 1 -7 0 -15z m-106 -110 c-10 -12 -10 -15 3 -15 9 0 25 -12 37 -27
l21 -26 -28 -29 c-15 -15 -24 -28 -21 -28 4 0 -3 -11 -15 -24 -15 -17 -24 -21
-29 -13 -4 7 -15 12 -25 12 -12 0 -18 8 -17 22 0 17 -4 20 -25 17 l-26 -4 25
15 c14 8 21 14 16 15 -6 0 -1 7 10 15 19 15 19 15 -1 9 -16 -5 -17 -4 -5 4 9
7 18 7 26 1 12 -10 42 16 30 28 -3 3 1 15 11 25 19 22 31 24 13 3z m-95 -134
c-3 -6 -11 -8 -17 -5 -6 4 -5 9 3 15 16 10 23 4 14 -10z m282 -253 c-3 -8 -6
-5 -6 6 -1 11 2 17 5 13 3 -3 4 -12 1 -19z"/>
<path d="M910 2131 c0 -5 5 -13 10 -16 6 -3 10 -2 10 4 0 5 -4 13 -10 16 -5 3
-10 2 -10 -4z"/>
<path d="M1400 2360 c-24 -8 -24 -8 -4 -15 15 -5 24 -20 32 -53 l10 -47 -3 50
c-4 49 -8 76 -9 74 -1 -1 -12 -5 -26 -9z"/>
<path d="M1150 2272 c0 -7 -5 -10 -11 -6 -6 3 -3 -5 6 -20 10 -14 22 -26 27
-26 5 0 7 -4 3 -10 -3 -5 3 -18 13 -28 10 -10 17 -23 15 -29 -2 -5 3 -16 11
-22 13 -11 15 -9 11 11 -3 12 -11 28 -18 33 -8 6 -12 15 -10 22 2 6 -5 18 -16
25 -12 8 -18 17 -15 21 3 3 1 14 -5 24 -6 11 -11 13 -11 5z"/>
<path d="M1412 2245 c0 -22 4 -53 8 -70 7 -28 8 -28 8 10 0 22 -4 54 -8 70 -7
28 -8 28 -8 -10z"/>
<path d="M1745 2190 c-3 -5 -4 -14 -1 -19 3 -5 -1 -12 -10 -15 -8 -3 -12 -10
-9 -16 3 -5 1 -10 -5 -10 -6 0 -9 -4 -6 -9 3 -5 -1 -11 -9 -15 -8 -3 -15 -15
-15 -27 0 -18 -4 -20 -27 -15 l-28 6 25 -14 c14 -8 26 -11 28 -6 2 5 10 6 18
3 8 -3 14 0 14 7 0 6 -5 8 -11 5 -17 -11 -6 27 14 47 10 10 15 23 12 28 -4 6
-2 10 4 10 15 0 33 38 22 45 -5 3 -12 1 -16 -5z"/>
<path d="M1340 2171 c0 -6 5 -13 10 -16 17 -10 11 -24 -17 -38 l-27 -14 27 0
c15 0 27 4 27 9 0 5 10 6 23 3 l22 -7 -22 21 c-13 12 -23 28 -23 36 0 8 -4 15
-10 15 -5 0 -10 -4 -10 -9z"/>
<path d="M733 2134 c9 -3 17 -10 17 -16 0 -5 -7 -8 -15 -4 -8 3 -15 1 -15 -5
0 -6 8 -9 18 -7 24 5 22 32 -3 35 -16 1 -16 1 -2 -3z"/>
<path d="M2184 2129 c-10 -17 13 -36 27 -22 12 12 4 33 -11 33 -5 0 -12 -5
-16 -11z m26 -9 c0 -5 -4 -10 -10 -10 -5 0 -10 5 -10 10 0 6 5 10 10 10 6 0
10 -4 10 -10z"/>
<path d="M1412 2105 c0 -16 2 -22 5 -12 2 9 2 23 0 30 -3 6 -5 -1 -5 -18z"/>
<path d="M1235 2110 c-4 -6 -3 -16 3 -22 13 -13 23 4 13 21 -7 10 -10 10 -16
1z"/>
<path d="M1594 2108 c-5 -7 -2 -9 8 -5 9 3 21 0 27 -6 8 -8 11 -8 11 0 0 6 -7
14 -16 17 -21 8 -22 8 -30 -6z"/>
<path d="M1654 2089 c-4 -7 -3 -9 4 -5 5 3 13 0 15 -6 4 -9 6 -10 6 -1 1 17
-16 25 -25 12z"/>
<path d="M1220 2050 c-11 -21 -6 -40 11 -40 5 0 6 12 3 26 -5 21 -4 25 6 19 9
-5 11 -4 6 3 -10 16 -14 15 -26 -8z"/>
<path d="M770 2051 c0 -23 -2 -26 -23 -39 -13 -8 -15 -11 -5 -8 10 3 24 -1 31
-8 11 -12 15 -11 25 5 15 23 15 32 1 24 -6 -4 -9 0 -7 10 2 10 -3 20 -9 22 -7
3 -13 0 -13 -6z m20 -41 c0 -5 -2 -10 -4 -10 -3 0 -8 5 -11 10 -3 6 -1 10 4
10 6 0 11 -4 11 -10z"/>
<path d="M945 2001 c-3 -5 5 -13 17 -17 12 -3 28 -13 36 -20 7 -8 18 -12 23
-8 12 7 2 24 -15 24 -8 0 -19 7 -26 15 -14 17 -26 19 -35 6z"/>
<path d="M757 1975 c-4 -9 -11 -14 -16 -11 -11 7 -23 -22 -15 -36 4 -5 15 3
25 19 11 16 19 22 19 13 0 -22 -30 -61 -41 -55 -5 4 -4 -6 1 -21 6 -14 8 -41
5 -58 -3 -17 -7 -41 -8 -53 -1 -13 -5 -23 -10 -23 -5 0 -7 17 -4 38 4 22 3 31
-2 23 -7 -11 -10 -11 -15 0 -3 8 -4 -3 -1 -23 7 -47 23 -44 -297 -61 -32 -2
-61 -7 -65 -10 -9 -10 106 -8 212 3 95 9 187 17 295 25 212 14 239 18 245 33
8 21 -5 30 -15 11 -7 -12 -28 -16 -87 -18 -43 -1 -93 -4 -110 -7 -31 -6 -33
-5 -33 24 0 17 -5 34 -11 38 -9 5 -10 -4 -5 -32 5 -28 4 -35 -3 -24 -6 8 -11
10 -11 4 0 -15 -43 -26 -64 -18 -9 3 -13 10 -10 15 3 5 7 28 10 51 2 23 8 46
12 50 10 10 63 -8 73 -24 4 -7 9 -7 13 1 4 6 2 11 -4 11 -6 0 -8 4 -5 10 4 6
-1 7 -11 3 -12 -5 -15 -3 -9 6 5 10 2 11 -12 7 -30 -10 -47 15 -32 47 7 16 8
31 2 42 -9 16 -10 16 -16 0z m-3 -90 c-4 -8 -8 -15 -10 -15 -2 0 -4 7 -4 15 0
8 4 15 10 15 5 0 7 -7 4 -15z"/>
<path d="M1036 1952 c-5 -8 20 -26 32 -23 5 2 2 11 -4 10 -4 0 -10 5 -14 11
-5 8 -10 8 -14 2z"/>
<path d="M635 1931 c-8 -15 3 -31 21 -31 9 0 14 7 12 17 -4 20 -24 28 -33 14z
m25 -11 c0 -5 -4 -10 -10 -10 -5 0 -10 5 -10 10 0 6 5 10 10 10 6 0 10 -4 10
-10z"/>
<path d="M2274 1929 c-4 -7 -3 -9 4 -5 6 3 13 2 16 -3 4 -5 -2 -12 -11 -14
-16 -4 -16 -5 -1 -6 23 -1 31 14 14 28 -11 9 -16 9 -22 0z"/>
<path d="M1084 1891 c4 -5 0 -11 -6 -14 -7 -2 -9 -8 -5 -13 4 -5 12 -2 17 6
13 20 12 30 -1 30 -5 0 -8 -4 -5 -9z"/>
<path d="M706 1874 c-10 -27 -7 -44 9 -44 8 0 15 7 15 16 0 8 -5 12 -11 8 -8
-4 -9 0 -4 15 7 24 0 29 -9 5z"/>
<path d="M1860 1869 c0 -5 5 -7 10 -4 6 3 10 8 10 11 0 2 -4 4 -10 4 -5 0 -10
-5 -10 -11z"/>
<path d="M865 1860 c3 -5 11 -10 16 -10 6 0 7 5 4 10 -3 6 -11 10 -16 10 -6 0
-7 -4 -4 -10z"/>
<path d="M904 1849 c-4 -8 1 -9 16 -4 17 5 21 4 15 -6 -6 -9 -3 -11 10 -6 9 4
24 2 32 -4 7 -7 16 -9 20 -6 6 7 -57 37 -76 37 -5 0 -13 -5 -17 -11z"/>
<path d="M1846 1847 c3 -10 9 -15 12 -12 3 3 0 11 -7 18 -10 9 -11 8 -5 -6z"/>
<path d="M1875 1850 c-3 -5 -1 -10 4 -10 6 0 11 5 11 10 0 6 -2 10 -4 10 -3 0
-8 -4 -11 -10z"/>
<path d="M1830 1831 c0 -4 5 -22 11 -39 11 -32 39 -35 34 -4 -4 26 5 34 23 20
15 -12 16 -11 4 4 -17 21 -42 12 -43 -16 -1 -15 -3 -12 -10 12 -9 30 -19 43
-19 23z"/>
<path d="M1015 1820 c-3 -5 -2 -10 4 -10 5 0 13 5 16 10 3 6 2 10 -4 10 -5 0
-13 -4 -16 -10z"/>
<path d="M1046 1813 c-6 -14 -5 -15 5 -6 7 7 10 15 7 18 -3 3 -9 -2 -12 -12z"/>
<path d="M27 1813 c-16 -4 -17 -7 -5 -21 8 -10 21 -35 30 -57 59 -150 67 -159
95 -115 l19 30 18 -31 c17 -30 19 -30 35 -12 30 32 34 70 11 101 -24 32 -38
92 -22 92 7 0 9 -8 5 -17 -7 -19 -5 -18 17 11 14 18 13 19 -14 14 -16 -3 -37
-1 -46 5 -11 6 -25 7 -36 2 -16 -8 -14 -10 14 -13 24 -2 32 -8 32 -23 0 -10 4
-19 8 -19 4 0 8 -8 9 -17 1 -10 7 -31 13 -48 9 -23 13 -26 20 -15 16 25 11 -5
-7 -40 l-16 -34 -16 35 c-21 45 -21 46 -32 29 -6 -10 -7 -6 -3 16 7 36 -22
116 -35 96 -5 -9 -11 -5 -19 13 -11 25 -31 29 -75 18z m90 -89 c28 -67 31 -80
20 -100 -12 -23 -15 -19 -54 76 -40 96 -41 100 -20 100 18 0 28 -15 54 -76z"/>
<path d="M250 1799 c0 -6 9 -8 20 -4 24 8 25 2 5 -19 -9 -9 -11 -17 -5 -21 5
-3 10 -2 10 4 0 6 10 19 22 31 l22 20 -37 0 c-20 0 -37 -5 -37 -11z"/>
<path d="M2728 1802 c-25 -3 -41 -22 -20 -22 5 0 9 -38 8 -85 0 -47 -4 -85 -8
-85 -5 0 -8 -4 -8 -10 0 -5 7 -7 15 -4 12 5 15 26 15 100 0 94 0 94 25 94 23
0 25 -4 25 -45 0 -34 4 -45 15 -45 9 0 19 8 23 18 5 12 9 4 13 -28 l6 -45 1
48 c2 44 -9 60 -23 37 -10 -16 -25 -1 -25 24 0 39 74 51 83 14 4 -12 9 -19 13
-16 3 4 3 15 0 26 -6 17 -17 21 -69 24 -34 1 -74 2 -89 0z"/>
<path d="M2140 1790 c0 -5 5 -10 11 -10 5 0 7 5 4 10 -3 6 -8 10 -11 10 -2 0
-4 -4 -4 -10z"/>
<path d="M1755 1769 c22 -4 51 -8 65 -7 23 0 22 1 -5 8 -16 4 -46 8 -65 8
l-35 0 40 -9z"/>
<path d="M1895 1771 c3 -5 -3 -12 -12 -14 -10 -3 0 -5 22 -5 22 0 51 4 65 9
20 7 17 8 -17 6 -24 -1 -43 1 -43 5 0 5 -5 8 -11 8 -5 0 -8 -4 -4 -9z"/>
<path d="M2121 1768 c-1 -9 -7 -18 -13 -21 -7 -2 0 -4 16 -4 15 0 24 2 19 6
-6 3 -13 13 -16 21 -4 12 -6 12 -6 -2z"/>
<path d="M2845 1760 c10 -11 20 -20 22 -20 2 0 -1 9 -7 20 -6 11 -16 20 -22
20 -6 0 -3 -9 7 -20z"/>
<path d="M1985 1750 c-28 -7 -28 -8 10 -8 22 0 54 4 70 8 28 7 28 8 -10 8 -22
0 -53 -4 -70 -8z"/>
<path d="M247 1737 c-3 -7 -2 -19 3 -26 5 -10 8 -9 13 2 3 7 2 19 -3 26 -5 10
-8 9 -13 -2z"/>
<path d="M285 1700 c-3 -5 16 -11 42 -15 27 -3 62 -7 79 -9 18 -3 36 0 42 6 6
6 46 7 108 2 71 -6 91 -10 69 -15 -28 -6 -27 -7 12 -8 23 0 53 3 67 9 30 11
609 16 626 5 8 -5 11 -3 8 6 -4 12 -82 14 -457 17 -261 1 -450 -2 -447 -7 6
-10 -76 -4 -116 9 -16 5 -30 5 -33 0z"/>
<path d="M2638 1700 c-15 -5 -71 -11 -125 -14 -210 -14 -253 -18 -253 -28 0
-7 24 -8 68 -4 37 4 87 9 112 11 129 13 223 25 228 30 10 10 -3 12 -30 5z"/>
<path d="M2780 1646 c0 -44 1 -46 29 -46 20 0 36 9 50 26 l21 27 0 -32 c0 -28
-3 -31 -32 -32 l-33 -2 30 -4 c35 -6 54 16 47 52 -6 31 -13 31 -40 0 -12 -14
-31 -25 -43 -25 -16 0 -20 5 -17 28 2 16 8 26 16 24 8 -1 12 3 10 10 -3 7 -12
14 -21 16 -14 3 -17 -5 -17 -42z"/>
<path d="M740 1660 c-12 -8 -10 -10 10 -9 14 1 36 5 50 9 23 7 22 8 -10 9 -19
0 -42 -4 -50 -9z"/>
<path d="M2230 1633 c0 -21 4 -44 8 -50 5 -8 8 9 8 37 0 28 -3 50 -8 50 -4 0
-8 -17 -8 -37z"/>
<path d="M875 1650 c17 -4 44 -8 60 -8 25 0 24 2 -10 9 -51 10 -92 10 -50 -1z"/>
<path d="M2040 1650 c-58 -4 -119 -8 -136 -9 -23 -1 -33 -7 -37 -21 -5 -20 3
-26 17 -13 8 8 28 13 86 19 243 26 234 27 243 -11 3 -13 5 -9 6 13 1 37 16 35
-179 22z"/>
<path d="M814 1619 c20 -94 20 -103 2 -96 -25 10 -72 -3 -54 -14 18 -12 30
-11 23 1 -4 7 2 9 19 4 18 -4 28 -2 32 9 4 10 15 14 35 12 19 -3 27 0 23 6 -3
6 -15 9 -25 6 -24 -7 -33 8 -34 57 0 24 -5 41 -14 44 -11 4 -13 -2 -7 -29z
m13 -1 c-3 -8 -6 -5 -6 6 -1 11 2 17 5 13 3 -3 4 -12 1 -19z"/>
<path d="M1005 1639 c-26 -7 -25 -8 12 -5 34 3 45 0 58 -18 14 -18 15 -19 10
-2 -3 11 0 23 7 28 17 10 -47 8 -87 -3z"/>
<path d="M693 1618 c-11 -25 17 -122 36 -124 24 -3 24 -4 7 -17 -14 -10 -16
-18 -9 -31 13 -23 25 -22 34 1 7 16 8 16 8 1 1 -9 -7 -22 -16 -27 -17 -10 -17
-10 0 -11 20 0 23 -16 5 -23 -10 -4 -10 -6 0 -6 7 -1 10 -5 7 -11 -3 -5 1 -10
9 -10 9 0 16 5 16 10 0 6 -5 10 -11 10 -5 0 -7 5 -3 11 5 8 9 7 15 -3 9 -16 7
-37 -4 -55 -5 -8 -3 -13 3 -13 6 0 8 -5 4 -12 -5 -8 -2 -9 9 -5 13 5 16 1 15
-16 -2 -25 27 -73 52 -87 23 -13 20 -41 -10 -81 -51 -68 -81 -94 -106 -91 -19
3 -27 -4 -41 -32 -9 -20 -20 -36 -24 -36 -4 0 -15 -22 -25 -49 -10 -28 -20
-48 -24 -46 -3 2 -116 -106 -251 -241 -134 -134 -239 -244 -234 -244 6 0 111
101 234 225 124 124 226 223 229 221 2 -3 -28 -63 -67 -135 -104 -191 -241
-470 -241 -491 0 -38 23 -43 178 -37 225 10 509 25 700 38 l173 12 32 -24 c28
-21 44 -24 119 -25 79 -1 90 -4 120 -29 18 -15 46 -50 61 -79 21 -39 26 -44
22 -22 -7 32 -55 99 -93 130 -20 15 -38 18 -106 17 -71 -2 -86 1 -110 20 -27
22 -32 22 -219 15 -106 -4 -289 -13 -407 -21 -118 -8 -270 -15 -338 -15 -123
0 -123 0 -117 23 4 12 76 160 160 329 85 168 151 309 148 312 -4 3 -1 6 4 6 6
0 31 38 54 85 24 47 46 85 51 85 7 0 -44 -113 -79 -172 -19 -32 -31 -58 -151
-308 -106 -224 -142 -305 -142 -321 0 -12 102 -3 255 23 66 11 156 26 200 34
104 17 455 38 523 31 33 -4 58 -12 66 -22 6 -9 31 -19 55 -22 l44 -6 -16 24
c-10 13 -17 26 -17 30 0 9 107 -89 182 -166 48 -49 60 -57 68 -45 5 8 10 20
10 27 0 23 32 43 70 43 21 0 41 4 44 8 3 5 -25 23 -62 40 -105 50 -144 81
-179 147 -18 34 -47 72 -69 88 -20 15 -31 27 -23 27 16 0 59 -27 74 -48 9 -11
19 -8 58 13 138 78 296 74 592 -14 180 -54 261 -74 274 -70 12 4 -419 657
-441 670 -7 4 -35 10 -63 13 l-50 5 53 -13 c56 -15 65 -23 137 -130 278 -412
338 -501 342 -513 7 -17 -21 -17 -78 1 -100 32 -247 75 -294 86 -200 48 -341
46 -447 -5 -63 -30 -72 -31 -113 -5 -24 15 -43 19 -68 15 -28 -5 -36 -2 -41
12 -4 16 -5 15 -4 -2 1 -35 -1 -36 -28 -18 -23 15 -24 18 -10 28 13 10 10 13
-22 22 -20 5 -61 9 -90 9 -47 -1 -51 0 -35 13 16 13 17 13 1 7 -52 -18 -54
-18 -33 0 21 17 21 17 -32 -2 -14 -6 -16 -4 -6 6 9 10 9 17 0 32 -10 15 -9 21
3 28 13 9 13 10 0 10 -13 0 -13 1 0 10 21 13 6 12 -24 -1 -14 -7 -27 -18 -31
-27 -8 -22 14 -43 39 -37 20 6 20 5 2 -6 -14 -9 -32 -9 -75 1 -78 17 -90 45
-30 70 26 11 32 30 8 30 -6 0 -8 -4 -5 -9 3 -4 -6 -13 -20 -20 -34 -15 -43
-13 -20 4 11 8 15 15 9 15 -16 0 -63 -40 -63 -54 0 -7 8 -20 18 -28 19 -17
107 -48 131 -47 9 0 -9 8 -39 19 -86 28 -41 23 93 -11 137 -36 242 -80 258
-111 6 -11 9 -37 6 -57 -5 -28 -4 -32 4 -18 6 10 9 36 7 58 -2 26 1 39 8 39 7
0 14 -3 17 -7 2 -5 3 -3 1 4 -11 48 57 1 91 -63 38 -72 89 -122 166 -164 59
-32 62 -35 36 -38 -19 -2 -34 -13 -45 -33 -16 -28 -52 -41 -52 -18 0 5 -30 38
-67 72 -37 34 -81 76 -99 93 -35 34 -69 43 -53 13 13 -25 12 -29 -8 -29 -9 0
-28 10 -41 23 -23 21 -30 22 -185 20 -138 -2 -449 -27 -467 -38 -10 -6 -244
-44 -307 -49 -34 -3 -64 -2 -66 2 -3 4 5 27 17 52 12 25 46 99 75 165 84 186
189 403 199 409 5 3 7 -5 5 -18 -7 -36 9 -37 42 -3 17 17 24 28 18 23 -8 -4
-13 -2 -13 8 0 10 6 13 15 10 8 -4 15 -11 15 -17 0 -6 3 -7 7 -4 3 4 -4 17
-16 28 -18 17 -20 23 -9 30 7 5 8 9 3 9 -6 0 -16 -5 -23 -12 -21 -21 -21 -4 0
45 21 47 31 56 43 36 5 -7 15 -4 29 9 11 11 30 22 41 25 19 4 18 5 -2 6 -12 0
-25 -3 -28 -9 -3 -5 -11 -10 -18 -10 -6 0 11 24 39 53 88 91 156 176 149 187
-3 5 0 8 7 5 20 -6 173 184 159 198 -8 8 -11 8 -11 -1 0 -17 -1 -19 -46 -70
-23 -26 -55 -63 -72 -82 -25 -29 -32 -32 -45 -21 -14 11 -15 9 -11 -15 5 -30
-31 -79 -50 -66 -6 4 -13 7 -16 8 -21 4 -39 18 -34 26 4 5 11 5 18 -1 9 -8 13
-7 13 3 0 8 -8 13 -18 11 -10 -2 -21 0 -24 6 -4 5 -1 9 6 9 8 0 8 4 -1 15 -7
8 -16 12 -21 9 -15 -9 -10 13 6 26 19 16 19 34 0 26 -19 -7 -47 3 -39 15 2 5
0 18 -7 30 -9 17 -8 23 2 30 8 5 9 9 3 9 -5 0 -16 -6 -23 -12 -11 -11 -12 -9
-7 8 6 21 -11 74 -23 74 -4 0 -7 27 -8 61 0 34 -6 66 -11 71 -6 6 -7 -6 -1
-34 10 -52 10 -83 0 -48 -4 14 -13 24 -19 23 -7 -2 -9 10 -5 32 6 40 1 45 -14
13z m36 -108 c0 -10 -3 -8 -9 5 -12 27 -12 43 0 25 5 -8 9 -22 9 -30z m26 -49
c-3 -6 -11 -11 -17 -11 -6 0 -6 6 2 15 14 17 26 13 15 -4z m75 -141 c0 -5 -7
-7 -15 -4 -8 4 -12 10 -9 15 6 11 24 2 24 -11z m15 -40 c-3 -5 -12 -10 -18
-10 -7 0 -6 4 3 10 19 12 23 12 15 0z m10 -30 c3 -5 2 -10 -4 -10 -5 0 -13 5
-16 10 -3 6 -2 10 4 10 5 0 13 -4 16 -10z m35 -46 c0 -2 -9 0 -20 6 -11 6 -20
13 -20 16 0 2 9 0 20 -6 11 -6 20 -13 20 -16z m30 -9 c11 -13 10 -14 -4 -9 -9
3 -16 10 -16 15 0 13 6 11 20 -6z m-200 -336 c-11 -24 -18 -33 -15 -19 3 14 7
30 8 35 4 16 19 37 23 32 3 -2 -5 -24 -16 -48z m306 -244 c-3 -8 2 -21 10 -30
9 -8 11 -15 5 -15 -17 0 -40 30 -35 45 4 8 11 15 16 15 6 0 8 -7 4 -15z m154
0 c-6 -8 -9 -19 -5 -25 3 -5 2 -10 -4 -10 -5 0 -13 5 -16 10 -8 12 12 40 27
40 6 0 5 -6 -2 -15z m205 -95 c20 -9 20 -9 0 -9 -11 0 -27 4 -35 9 -13 9 -13
10 0 9 8 0 24 -4 35 -9z m110 -50 c-3 -5 -14 -10 -23 -9 -14 0 -13 2 3 9 27
11 27 11 20 0z"/>
<path d="M1108 1633 c-14 -3 -15 -9 -8 -29 13 -33 12 -54 -1 -31 -5 9 -15 17
-22 17 -9 0 -9 -2 0 -8 12 -8 33 -55 33 -74 0 -6 -8 0 -19 13 -10 13 -16 30
-13 39 4 12 2 13 -8 3 -11 -10 -11 -16 3 -31 9 -10 15 -21 12 -23 -2 -3 5 -11
17 -18 11 -7 17 -8 13 -2 -3 6 -2 11 4 11 6 0 8 8 5 18 -4 15 -4 15 8 -1 39
-56 33 -57 98 13 32 36 59 71 60 79 0 9 10 12 35 9 20 -2 34 0 32 5 -1 5 -6 8
-10 8 -4 -1 -35 -2 -69 -2 -48 -1 -55 -3 -30 -8 l32 -6 -50 -62 c-28 -35 -55
-63 -61 -63 -10 0 -59 96 -59 117 0 6 24 16 53 21 l52 10 -45 0 c-25 0 -53 -2
-62 -5z m9 -95 c-3 -8 -6 -5 -6 6 -1 11 2 17 5 13 3 -3 4 -12 1 -19z"/>
<path d="M1703 1623 c-47 -4 -69 -15 -44 -25 5 -1 32 -31 61 -65 28 -35 55
-63 60 -63 4 0 17 15 29 33 27 41 27 23 1 -21 l-21 -33 80 -92 c43 -51 84 -91
90 -90 5 2 8 -3 5 -10 -11 -31 69 -78 92 -54 14 14 26 7 14 -8 -7 -9 -19 -14
-27 -11 -29 11 -10 -23 49 -88 73 -81 65 -83 -22 -6 -35 30 -68 55 -73 55 -6
0 -11 -10 -12 -22 -1 -18 1 -20 12 -11 11 9 20 7 40 -9 45 -33 42 -47 -8 -40
-29 4 -37 3 -24 -3 11 -5 34 -9 51 -9 17 -1 37 -8 44 -16 13 -16 46 -20 54 -7
2 4 -20 37 -49 74 l-53 66 23 22 c13 13 21 29 18 40 -3 11 0 18 9 17 7 -1 14
2 15 7 1 5 7 13 15 18 10 8 9 9 -4 5 -12 -4 -15 0 -13 19 1 14 8 31 15 37 10
9 12 8 7 -5 -3 -9 -3 -19 1 -21 4 -2 1 -2 -5 -1 -7 2 -13 -1 -13 -7 0 -6 8 -9
18 -7 19 4 23 26 9 45 -5 7 -5 19 0 28 9 15 11 15 23 0 11 -13 10 -15 -4 -9
-9 3 -16 1 -16 -6 0 -6 8 -10 18 -8 11 2 17 13 17 31 0 15 4 26 9 26 13 -1 28
29 21 40 -3 5 -1 12 5 16 5 3 10 12 10 18 0 7 -5 4 -11 -6 -12 -20 -29 -14
-29 11 0 13 2 14 9 4 7 -11 9 -10 15 3 3 9 10 14 15 11 14 -9 24 45 10 58 -9
8 -10 6 -6 -11 6 -28 -19 -32 -26 -5 -4 16 -5 15 -6 -1 -1 -15 -6 -17 -30 -12
-18 4 -32 2 -36 -5 -5 -9 -1 -10 15 -5 15 5 20 4 16 -4 -9 -14 0 -14 25 -1 15
8 19 7 19 -5 0 -8 -5 -14 -11 -13 -5 2 -17 -15 -24 -37 -17 -48 -17 -48 -6
-40 6 3 9 -4 8 -15 -1 -22 -13 -27 -19 -8 -2 6 -10 -3 -18 -21 -8 -19 -18 -30
-26 -27 -16 6 -28 -10 -14 -19 11 -7 4 -23 -24 -60 -15 -20 -15 -20 -31 0 -16
19 -16 19 -2 -5 13 -22 13 -27 -1 -39 -17 -16 -41 -6 -57 25 -6 10 -24 33 -40
49 -36 37 -71 77 -108 126 l-27 36 30 61 c31 63 30 63 91 47 17 -4 30 -2 34 5
5 9 1 10 -15 5 -14 -4 -20 -3 -16 3 3 5 -12 9 -39 7 -41 -1 -45 1 -45 22 0 25
-6 26 -147 16z m130 -38 c-2 -22 0 -26 7 -15 9 13 10 13 10 0 0 -8 -5 -22 -10
-30 -9 -13 -10 -13 -10 0 0 8 -10 0 -21 -17 -12 -18 -24 -33 -27 -33 -10 0
-92 97 -92 109 0 9 66 19 120 17 21 -1 25 -5 23 -31z m367 -150 c11 -13 10
-14 -4 -9 -9 3 -16 10 -16 15 0 13 6 11 20 -6z m-96 -156 c-3 -6 0 -16 7 -21
11 -8 10 -8 -4 -4 -13 4 -20 0 -24 -12 -2 -10 -13 -23 -23 -30 -14 -8 -10 2
12 33 18 25 33 45 36 45 2 0 0 -5 -4 -11z"/>
<path d="M785 1610 c-3 -5 -1 -10 4 -10 6 0 11 5 11 10 0 6 -2 10 -4 10 -3 0
-8 -4 -11 -10z"/>
<path d="M2106 1577 c-5 -28 -10 -34 -25 -30 -10 3 -22 0 -25 -6 -4 -6 4 -9
24 -6 35 4 35 3 14 -30 -9 -13 -13 -29 -9 -35 3 -5 1 -10 -6 -10 -7 0 -9 -3
-6 -6 4 -4 -7 -24 -24 -45 -17 -22 -28 -39 -24 -39 3 0 -4 -14 -17 -32 -27
-39 -34 -66 -12 -47 8 6 14 17 14 24 0 7 7 16 16 19 8 3 13 10 9 15 -3 6 4 9
15 8 11 -1 20 -5 20 -10 0 -4 5 -5 11 -1 8 4 7 9 -2 15 -20 12 -19 51 0 69 9
8 17 24 16 35 0 11 6 30 13 42 8 13 11 31 7 44 -5 14 -4 19 4 15 13 -8 14 13
2 32 -6 10 -10 4 -15 -21z m-50 -196 c0 -11 -5 -17 -13 -14 -10 4 -11 9 -2 19
15 18 15 18 15 -5z"/>
<path d="M2730 1590 c-11 -7 -4 -10 25 -9 31 0 36 2 20 9 -26 11 -28 11 -45 0z"/>
<path d="M983 1579 c-31 -9 -55 -29 -34 -29 5 0 13 5 17 11 3 6 15 8 26 6 24
-7 50 2 42 14 -6 10 -8 10 -51 -2z"/>
<path d="M2210 1575 c0 -8 2 -15 4 -15 2 0 6 7 10 15 3 8 1 15 -4 15 -6 0 -10
-7 -10 -15z"/>
<path d="M1980 1561 c0 -15 52 -23 64 -10 8 8 6 10 -11 5 -12 -4 -24 -2 -28 4
-8 12 -25 13 -25 1z"/>
<path d="M905 1550 c3 -5 11 -10 16 -10 6 0 7 5 4 10 -3 6 -11 10 -16 10 -6 0
-7 -4 -4 -10z"/>
<path d="M1874 1552 c3 -5 1 -12 -6 -14 -8 -3 -9 -6 -1 -11 6 -4 13 0 17 8 3
8 0 17 -6 21 -6 4 -8 3 -4 -4z"/>
<path d="M847 1513 c-4 -3 -7 -11 -7 -17 0 -6 5 -5 12 2 6 6 9 14 7 17 -3 3
-9 2 -12 -2z"/>
<path d="M1313 1463 c-40 -32 -72 -61 -73 -65 0 -11 102 -68 120 -67 8 0 -8
11 -36 23 -28 13 -54 28 -58 34 -6 10 103 106 112 98 2 -3 6 -40 8 -83 2 -49
7 -79 15 -82 9 -3 11 13 6 65 -4 38 -7 84 -7 102 0 17 -3 32 -8 32 -4 0 -40
-26 -79 -57z"/>
<path d="M1840 1495 c-6 -8 -9 -18 -6 -24 3 -5 1 -12 -4 -14 -6 -3 -5 -4 2 -3
7 2 12 10 12 19 -1 9 2 15 6 12 4 -3 10 2 14 10 7 19 -8 19 -24 0z"/>
<path d="M634 1489 c-8 -14 11 -33 25 -25 16 10 13 36 -3 36 -8 0 -18 -5 -22
-11z m26 -9 c0 -5 -4 -10 -10 -10 -5 0 -10 5 -10 10 0 6 5 10 10 10 6 0 10 -4
10 -10z"/>
<path d="M1542 1460 c0 -25 4 -58 8 -75 7 -27 8 -25 8 15 0 25 -4 59 -8 75 -7
27 -8 25 -8 -15z"/>
<path d="M2266 1491 c-7 -11 18 -33 27 -24 4 3 7 12 7 20 0 15 -26 18 -34 4z
m24 -11 c0 -5 -2 -10 -4 -10 -3 0 -8 5 -11 10 -3 6 -1 10 4 10 6 0 11 -4 11
-10z"/>
<path d="M855 1479 c-4 -5 0 -18 9 -28 9 -10 13 -20 10 -24 -9 -8 6 -28 16
-22 11 7 -9 55 -23 55 -5 0 -7 7 -3 15 6 17 0 20 -9 4z"/>
<path d="M1074 1475 c-4 -8 -10 -12 -15 -10 -4 3 -17 -3 -29 -15 -11 -11 -20
-18 -20 -15 0 3 -9 1 -20 -5 -11 -6 -20 -16 -19 -23 0 -9 2 -9 5 0 3 7 11 10
19 7 8 -3 19 3 26 14 7 11 18 18 25 15 6 -2 18 5 26 16 8 12 18 18 23 13 5 -4
5 -1 1 6 -9 16 -15 15 -22 -3z"/>
<path d="M1860 1470 c0 -9 14 -14 33 -11 4 0 7 -4 7 -10 0 -5 4 -8 9 -5 5 3
12 -1 15 -10 3 -8 10 -12 16 -9 5 3 10 1 10 -5 0 -6 5 -8 10 -5 6 3 10 2 10
-4 0 -17 38 -33 46 -19 4 7 3 8 -4 4 -7 -4 -12 -2 -12 5 0 7 -3 9 -7 6 -3 -4
-11 0 -17 8 -6 7 -17 15 -25 17 -8 2 -23 11 -33 21 -10 10 -23 15 -28 12 -6
-4 -10 -1 -10 4 0 6 -4 11 -10 11 -5 0 -10 -4 -10 -10z"/>
<path d="M932 1398 c-7 -7 -12 -18 -12 -26 0 -7 -5 -10 -10 -7 -6 4 -8 11 -5
16 4 5 2 9 -3 9 -6 0 -13 -7 -16 -16 -8 -22 -8 -25 7 -23 25 3 38 -1 32 -11
-3 -5 -1 -10 4 -10 6 0 10 -3 9 -7 -3 -8 5 -13 18 -13 3 0 -2 10 -10 22 -19
26 -21 59 -5 56 6 -2 14 3 16 10 6 15 -9 16 -25 0z"/>
<path d="M1532 1355 c0 -44 14 -119 17 -88 1 7 9 10 19 7 14 -5 14 -3 -3 12
-13 11 -15 15 -5 11 9 -2 24 1 34 9 17 12 15 13 -18 7 -28 -4 -35 -3 -32 8 3
8 1 30 -3 49 -9 34 -9 33 -9 -15z"/>
<path d="M1208 1373 c-1 -5 -34 -34 -73 -65 -38 -31 -81 -67 -95 -80 -14 -13
-65 -57 -114 -98 -89 -74 -89 -74 -62 -83 19 -6 31 -6 39 3 9 10 7 11 -10 5
-33 -9 -28 9 10 37 41 31 53 30 78 -7 19 -28 20 -29 14 -5 l-6 25 15 -25 c8
-14 18 -24 23 -24 4 1 14 -7 21 -17 18 -26 35 -24 27 3 -6 16 -4 20 7 15 19
-7 44 8 29 17 -6 4 -11 2 -11 -5 0 -8 -4 -8 -12 -2 -16 13 -51 13 -59 1 -3 -5
-9 -2 -12 7 -4 9 -3 14 1 11 4 -2 13 -1 20 3 8 4 5 11 -9 20 -15 9 -19 9 -14
0 5 -7 3 -10 -6 -7 -8 3 -14 9 -14 14 0 5 -4 15 -9 23 -6 10 1 22 24 43 32 27
34 28 54 11 21 -18 21 -18 3 3 -18 21 -17 22 63 89 66 55 83 65 95 55 17 -14
16 -50 -2 -65 -7 -5 -13 -17 -15 -25 -2 -8 -9 -19 -16 -25 -7 -5 -14 -21 -17
-33 -4 -20 -2 -22 11 -11 8 7 13 17 10 24 -2 6 5 17 16 24 10 6 18 17 15 24
-2 6 9 24 25 39 15 15 28 32 28 37 0 6 8 8 18 5 9 -4 -1 5 -23 20 -41 26 -61
32 -67 19z m56 -30 c4 -10 0 -23 -10 -32 -10 -9 -14 -10 -9 -3 4 8 -1 22 -11
33 -16 18 -16 19 3 19 12 0 24 -8 27 -17z m-278 -228 c1 -8 -2 -13 -7 -9 -5 3
-7 10 -4 15 4 5 1 9 -4 9 -6 0 -11 5 -11 12 0 17 23 -7 26 -27z m80 -67 c0
-10 -1 -18 -3 -18 -1 0 -7 8 -12 18 -7 13 -6 19 2 19 7 0 13 -9 13 -19z"/>
<path d="M1657 1369 c-9 -6 -15 -15 -11 -21 4 -6 -1 -8 -12 -5 -11 3 -32 -1
-49 -9 -30 -14 -23 -14 24 1 16 5 21 4 17 -4 -10 -16 -2 -14 39 9 40 22 55 25
55 9 0 -5 -4 -8 -9 -4 -5 3 -12 1 -15 -4 -4 -5 1 -8 10 -7 18 3 39 34 29 44
-3 4 -20 -1 -36 -11 -37 -21 -60 -23 -33 -2 22 17 17 19 -9 4z"/>
<path d="M1780 1319 c25 -22 62 -54 82 -71 22 -17 35 -35 31 -44 -3 -8 -9 -12
-13 -9 -5 3 -12 -1 -17 -8 -4 -8 -18 -19 -30 -26 -13 -6 -23 -19 -23 -27 0 -8
-5 -12 -11 -9 -6 4 -8 14 -5 22 7 18 -19 59 -29 44 -3 -6 -2 -11 2 -11 17 0
12 -45 -6 -62 -11 -9 -21 -14 -25 -11 -3 3 -21 -4 -40 -15 -39 -23 -38 -24
-56 33 -7 22 -17 45 -22 52 -5 7 -7 16 -4 21 3 6 1 24 -5 41 -8 24 -8 35 1 46
8 9 9 15 2 15 -24 0 -24 -79 -1 -135 7 -16 11 -38 10 -49 -2 -12 1 -16 10 -10
9 5 10 2 6 -10 -4 -10 -7 -20 -7 -22 0 -2 -8 -4 -17 -4 -10 -1 -35 -7 -55 -14
-21 -8 -36 -10 -33 -6 2 4 0 20 -5 36 -8 28 -8 27 -8 -11 0 -22 4 -51 8 -65
l8 -25 1 28 c1 22 11 34 24 25 1 -1 12 4 25 11 18 10 28 9 52 -3 17 -8 30 -11
30 -6 0 4 -7 11 -16 14 -8 3 -12 11 -8 17 5 8 9 8 14 -1 6 -9 13 -9 31 1 13 7
29 13 34 14 21 1 55 17 55 25 0 5 9 7 21 5 15 -3 23 2 26 15 3 11 9 17 14 15
4 -3 24 10 43 28 l35 34 33 -27 c30 -26 31 -28 15 -44 -19 -19 -23 -31 -7 -21
6 3 10 2 10 -3 0 -5 -9 -12 -19 -15 -14 -3 -18 -1 -14 9 3 8 0 14 -7 14 -6 0
-9 -4 -5 -10 3 -5 -9 -17 -27 -26 -18 -10 -27 -19 -20 -21 18 -7 15 -19 -7
-20 -14 -1 -17 3 -14 18 3 11 -1 21 -11 25 -9 3 -13 11 -9 17 4 6 1 7 -7 2
-10 -6 -9 -11 4 -21 23 -17 22 -24 -8 -44 -15 -9 -23 -20 -19 -25 5 -4 0 -5
-9 -2 -23 8 -87 -18 -67 -27 8 -3 2 -4 -13 -1 -14 3 -37 0 -50 -5 -20 -9 -18
-9 12 -5 28 3 24 1 -17 -13 l-52 -18 47 -11 c26 -6 56 -14 67 -17 11 -4 2 3
-20 14 -22 11 -29 17 -16 14 16 -4 21 -3 17 5 -9 14 35 32 48 21 5 -5 20 3 34
17 17 17 27 21 32 13 6 -9 13 -9 29 -1 11 7 21 14 21 17 0 3 -4 2 -10 -1 -5
-3 -10 -2 -10 3 0 6 7 12 15 16 8 3 15 1 15 -5 0 -6 7 -6 20 1 20 11 28 40 10
40 -5 0 -7 -8 -4 -17 5 -15 4 -15 -4 -3 -13 18 -5 33 15 26 8 -3 12 -2 9 2 -3
5 8 7 23 4 18 -2 28 1 29 10 2 23 7 42 16 56 4 7 6 14 5 16 -12 8 -125 102
-129 107 -14 18 -106 89 -115 89 -5 0 10 -19 35 -41z m54 -294 c-4 -8 -11 -12
-16 -9 -6 4 -5 10 3 15 19 12 19 11 13 -6z m-67 -32 c-9 -9 -20 -13 -24 -9 -4
4 -1 11 7 16 25 16 35 11 17 -7z"/>
<path d="M1335 1319 c58 -36 67 -57 73 -166 3 -57 9 -103 13 -103 12 0 11 40
-2 159 -11 96 -13 99 -38 104 -14 2 -35 7 -46 11 -20 8 -20 8 0 -5z"/>
<path d="M1294 1308 c3 -15 26 -23 26 -8 0 6 -4 9 -9 6 -5 -4 -12 -1 -14 4 -3
6 -4 5 -3 -2z"/>
<path d="M1650 1310 c0 -6 -4 -8 -10 -5 -5 3 -10 1 -10 -4 0 -13 10 -14 29 -2
9 6 10 11 2 15 -6 4 -11 2 -11 -4z"/>
<path d="M1697 1301 c11 -9 18 -21 16 -27 -2 -5 7 -21 19 -34 13 -14 22 -26
21 -27 -2 -2 -1 -3 2 -3 9 0 5 15 -7 31 -7 8 -14 22 -16 30 -2 8 -10 19 -17
25 -8 6 -13 13 -10 16 3 2 -2 5 -12 5 -14 0 -13 -3 4 -16z"/>
<path d="M1345 1280 c10 -11 20 -20 23 -20 3 0 -3 9 -13 20 -10 11 -20 20 -23
20 -3 0 3 -9 13 -20z"/>
<path d="M720 1277 c0 -10 8 -17 18 -17 9 0 13 4 7 8 -5 4 -13 11 -17 16 -5 5
-8 2 -8 -7z"/>
<path d="M917 1283 c-4 -3 -7 -11 -7 -17 0 -6 5 -5 12 2 6 6 9 14 7 17 -3 3
-9 2 -12 -2z"/>
<path d="M2181 1274 c0 -11 3 -14 6 -6 3 7 2 16 -1 19 -3 4 -6 -2 -5 -13z"/>
<path d="M2206 1275 c-3 -8 -1 -15 4 -15 6 0 10 7 10 15 0 8 -2 15 -4 15 -2 0
-6 -7 -10 -15z"/>
<path d="M1346 1241 c-4 -7 -5 -15 -2 -18 9 -9 19 4 14 18 -4 11 -6 11 -12 0z"/>
<path d="M1525 1195 c-3 -31 -5 -59 -2 -61 3 -3 8 20 12 51 3 31 5 59 2 61 -3
3 -8 -20 -12 -51z"/>
<path d="M1329 1195 c-2 -11 -3 -27 -4 -35 -1 -8 -9 -32 -18 -52 l-16 -38 -36
21 c-20 12 -38 19 -42 16 -3 -3 -12 1 -20 9 -8 8 -19 11 -25 8 -6 -4 -8 2 -3
16 10 32 -15 21 -36 -16 -16 -29 -16 -49 2 -38 5 3 7 10 4 15 -4 5 -3 9 2 10
4 0 16 2 26 4 9 2 17 0 17 -4 0 -11 50 -32 59 -26 5 2 20 -6 35 -20 23 -21 25
-27 15 -49 -6 -13 -23 -27 -36 -31 -24 -6 -24 -7 -8 -19 16 -12 12 -16 -43
-37 -37 -14 -58 -27 -52 -33 5 -5 15 -2 25 8 9 9 24 16 33 16 15 0 15 -2 2
-11 -12 -8 -10 -9 7 -4 33 9 116 14 148 8 40 -8 68 -62 82 -163 l12 -85 -5 90
c-3 59 -10 98 -21 114 -11 17 -13 26 -5 29 7 2 12 12 12 23 0 13 -7 19 -22 18
-13 0 -17 -3 -10 -6 6 -2 12 -12 12 -20 0 -14 -3 -13 -20 2 -22 20 -55 22
-139 10 -45 -6 -45 -6 -19 9 15 8 36 12 48 9 11 -3 20 -1 20 5 0 6 -15 14 -32
18 -31 6 -32 7 -10 15 13 5 28 22 33 39 11 30 21 34 69 32 l25 -2 -25 11 c-13
5 -36 7 -50 4 -18 -4 -21 -3 -10 4 8 6 12 13 8 16 -3 4 3 26 13 51 15 32 17
49 10 62 -10 16 -11 15 -12 -3z m-176 -60 c-3 -9 -8 -14 -10 -11 -3 3 -2 9 2
15 9 16 15 13 8 -4z"/>
<path d="M1068 1164 c-16 -8 -28 -17 -28 -20 0 -2 12 2 27 10 24 12 29 12 39
-2 9 -13 12 -13 19 -1 5 8 5 11 0 7 -4 -4 -13 -1 -19 7 -10 12 -15 12 -38 -1z"/>
<path d="M1880 1156 c0 -2 7 -9 15 -16 9 -7 15 -8 15 -2 0 5 -7 12 -15 16 -8
3 -15 4 -15 2z"/>
<path d="M930 1060 c19 -13 30 -13 30 0 0 6 -10 10 -22 10 -19 0 -20 -2 -8
-10z"/>
<path d="M1203 1055 c0 -8 4 -12 9 -9 5 3 6 10 3 15 -9 13 -12 11 -12 -6z"/>
<path d="M1737 1050 c3 -11 9 -20 15 -20 5 0 4 9 -2 20 -6 11 -12 20 -14 20
-2 0 -2 -9 1 -20z"/>
<path d="M1920 1059 c0 -5 5 -7 10 -4 6 3 10 8 10 11 0 2 -4 4 -10 4 -5 0 -10
-5 -10 -11z"/>
<path d="M1087 1030 c10 -26 35 -41 50 -29 10 9 13 7 13 -7 0 -17 1 -17 13 0
13 18 52 12 41 -6 -4 -6 -10 -5 -15 3 -4 7 -11 10 -15 7 -3 -4 0 -14 8 -22 13
-13 17 -12 30 4 15 16 14 19 -8 29 -13 6 -31 8 -41 4 -10 -4 -14 -2 -10 4 8
12 -17 26 -49 28 -16 1 -20 -4 -17 -15z m26 -5 c-3 -9 -8 -14 -10 -11 -3 3 -2
9 2 15 9 16 15 13 8 -4z m19 -17 c-7 -7 -12 -8 -12 -2 0 14 12 26 19 19 2 -3
-1 -11 -7 -17z"/>
<path d="M1418 999 c4 -40 3 -42 -19 -35 -41 12 -116 17 -99 7 8 -5 43 -12 78
-16 l62 -7 0 46 c0 31 -4 46 -13 46 -9 0 -11 -12 -9 -41z"/>
<path d="M1657 1013 c-4 -3 -7 -11 -7 -17 0 -6 5 -5 12 2 6 6 9 14 7 17 -3 3
-9 2 -12 -2z"/>
<path d="M2170 1011 c0 -4 -12 -6 -26 -3 -21 4 -25 2 -19 -9 33 -54 207 -309
211 -309 6 0 1 10 -46 80 -51 76 -53 80 -41 80 9 0 375 -543 387 -574 11 -28
3 -27 -396 9 -96 9 -191 21 -211 26 -20 5 -111 12 -202 16 -159 6 -166 7 -177
29 -18 33 -6 52 45 74 63 27 84 30 206 31 101 0 243 -25 291 -51 10 -6 25 -10
33 -10 9 0 40 -9 70 -19 30 -11 55 -18 55 -15 0 2 12 -1 28 -7 15 -6 36 -13
47 -15 11 -2 46 -10 77 -18 68 -16 86 -9 66 25 -22 41 -158 239 -163 239 -8 0
-8 0 79 -130 46 -69 79 -127 74 -129 -13 -4 -219 50 -373 99 -161 51 -351 64
-447 31 -80 -27 -118 -49 -118 -68 0 -8 9 -30 20 -48 l20 -32 157 -6 c87 -3
210 -13 273 -21 167 -23 424 -46 503 -46 52 0 67 3 67 15 0 16 -387 598 -401
603 -5 2 -9 11 -9 19 0 11 -6 14 -21 10 -17 -4 -19 -3 -10 6 15 15 14 30 -3
24 -9 -4 -12 0 -9 12 4 16 8 15 32 -8 15 -14 31 -33 34 -41 4 -9 5 -6 3 8 -3
16 1 22 15 22 10 0 19 5 19 11 0 5 4 8 9 5 5 -3 12 1 15 9 5 13 2 14 -15 4
-25 -13 -34 -6 -25 18 6 14 9 15 15 4 5 -7 11 -9 14 -5 3 5 -1 15 -9 22 -9 8
-14 9 -14 2 0 -7 -6 -8 -19 0 -28 14 -34 -3 -11 -30 11 -13 17 -26 14 -29 -3
-3 -14 4 -24 17 -12 14 -20 18 -22 10 -3 -7 -17 6 -33 30 -28 42 -35 49 -35
33z m6 -21 c-4 8 2 5 13 -8 19 -22 19 -52 0 -52 -11 0 -39 41 -39 58 0 12 3
12 17 1 14 -12 16 -12 9 1z"/>
<path d="M613 974 c-26 -29 -30 -43 -9 -25 12 10 17 8 26 -8 8 -16 8 -21 -1
-21 -7 0 -9 -3 -6 -6 13 -14 38 19 33 42 -5 19 -3 22 11 17 17 -6 17 -6 1 10
-22 22 -29 21 -55 -9z m36 -34 c1 -13 0 -13 -9 0 -5 8 -9 24 -9 35 0 20 0 20
9 0 5 -11 9 -27 9 -35z"/>
<path d="M1035 980 c-8 -13 4 -32 16 -25 12 8 12 35 0 35 -6 0 -13 -4 -16 -10z"/>
<path d="M1874 979 c-10 -17 13 -36 27 -22 12 12 4 33 -11 33 -5 0 -12 -5 -16
-11z m26 -9 c0 -5 -4 -10 -10 -10 -5 0 -10 5 -10 10 0 6 5 10 10 10 6 0 10 -4
10 -10z"/>
<path d="M1481 921 c-9 -6 -11 -39 -7 -136 3 -70 8 -130 11 -133 10 -11 25 50
15 63 -12 14 -12 160 1 190 8 20 8 20 9 0 0 -13 3 -16 8 -8 4 6 35 11 75 12
61 0 69 -2 77 -22 7 -18 9 -19 9 -4 1 10 6 15 11 12 6 -4 8 -11 5 -16 -4 -5
-2 -9 4 -9 5 0 11 5 13 12 3 9 30 5 97 -16 51 -15 95 -26 97 -23 3 2 -32 15
-77 27 -64 18 -78 26 -63 32 13 6 9 7 -14 3 -18 -2 -57 2 -87 10 -59 15 -163
18 -184 6z"/>
<path d="M1078 887 c-16 -6 -28 -14 -28 -19 0 -12 18 -10 25 3 4 6 13 8 21 5
18 -7 45 4 38 15 -6 11 -21 10 -56 -4z"/>
<path d="M1237 893 c-10 -9 -9 -23 1 -23 5 0 9 7 9 15 0 17 -1 18 -10 8z"/>
<path d="M1870 871 c60 -20 79 -29 65 -34 -11 -3 -7 -4 10 -2 17 2 32 4 35 5
9 3 -164 60 -180 60 -8 -1 23 -13 70 -29z"/>
<path d="M1002 863 c-13 -5 -7 -23 9 -23 6 0 7 5 3 12 -5 8 -2 9 9 5 10 -3 17
-2 17 3 0 11 -16 12 -38 3z"/>
<path d="M2310 863 c0 -10 472 -483 483 -483 4 0 3 9 -3 20 -6 11 -16 19 -22
17 -7 -1 -12 5 -13 13 0 8 -7 15 -15 15 -8 0 -15 7 -15 15 0 8 -7 15 -15 15
-8 0 -15 7 -15 15 0 8 -7 15 -15 15 -8 0 -15 7 -15 15 0 8 -7 15 -15 15 -8 0
-15 7 -15 15 0 8 -7 15 -15 15 -8 0 -15 7 -15 15 0 8 -7 15 -15 15 -8 0 -15 7
-15 15 0 8 -7 15 -15 15 -8 0 -15 7 -15 15 0 8 -7 15 -15 15 -8 0 -15 7 -15
15 0 8 -7 15 -15 15 -8 0 -15 7 -15 15 0 8 -7 15 -15 15 -8 0 -15 7 -15 15 0
8 -7 15 -15 15 -8 0 -15 7 -15 15 0 8 -7 15 -15 15 -8 0 -15 7 -15 15 0 8 -7
15 -15 15 -8 0 -15 7 -15 15 0 8 -7 15 -15 15 -8 0 -15 6 -15 14 0 8 -6 16
-12 19 -7 2 -13 0 -13 -5z"/>
<path d="M2355 753 c120 -172 308 -454 332 -499 13 -23 20 -44 16 -48 -8 -7
-422 -6 -666 3 -97 3 -177 3 -177 0 0 -4 12 -12 28 -18 15 -7 43 -25 62 -42
39 -34 47 -34 -83 -4 -97 22 -100 19 -134 -120 -5 -20 -5 -20 10 0 8 11 18 39
22 63 9 55 29 60 141 33 48 -11 91 -18 96 -15 9 6 -60 74 -75 74 -7 0 -7 3 -2
9 6 5 77 5 160 1 83 -4 250 -8 372 -9 288 -2 298 2 223 114 -23 33 -48 75 -56
93 -9 17 -20 32 -25 32 -5 0 -9 7 -9 15 0 8 -3 15 -8 15 -4 0 -12 9 -17 19
-13 26 -110 166 -149 216 -18 22 -53 70 -79 108 -27 37 -50 67 -53 67 -3 0 29
-48 71 -107z"/>
<path d="M1543 806 c19 -15 23 -41 7 -51 -5 -3 -10 -17 -10 -30 0 -20 7 -26
42 -35 22 -7 57 -9 76 -5 70 13 191 57 207 75 16 18 15 18 -21 -1 -21 -10 -46
-19 -56 -19 -10 0 -26 -4 -36 -9 -9 -5 -41 -17 -70 -26 -85 -26 -145 3 -113
54 12 18 -2 46 -26 55 -17 6 -17 5 0 -8z"/>
<path d="M1927 814 c-4 -4 -7 -17 -8 -28 0 -12 -3 -15 -6 -8 -2 6 -9 12 -14
12 -6 0 -8 -4 -5 -9 7 -10 -49 -61 -66 -61 -6 0 -9 -3 -5 -6 8 -9 80 19 94 36
7 8 13 25 13 38 0 12 5 22 10 22 17 0 11 -36 -10 -62 -26 -34 -80 -54 -163
-63 -47 -5 -67 -11 -67 -21 0 -8 -4 -14 -10 -14 -5 0 -10 5 -10 10 0 7 -22 8
-63 4 -54 -5 -65 -4 -70 10 -4 9 -14 16 -23 16 -13 0 -12 -4 6 -23 19 -19 31
-23 64 -20 22 3 42 6 44 8 2 2 15 -1 29 -6 17 -6 30 -6 37 1 7 5 37 12 67 15
102 12 195 75 187 127 -3 22 -19 33 -31 22z"/>
<path d="M785 799 c-10 -15 3 -25 16 -12 7 7 7 13 1 17 -6 3 -14 1 -17 -5z"/>
<path d="M1519 797 c12 -15 11 -20 -3 -35 -9 -10 -16 -25 -16 -33 0 -16 39 30
40 47 0 6 -8 18 -17 25 -16 13 -17 12 -4 -4z"/>
<path d="M2160 780 c0 -5 5 -10 11 -10 5 0 7 5 4 10 -3 6 -8 10 -11 10 -2 0
-4 -4 -4 -10z"/>
<path d="M668 752 c3 -9 1 -13 -5 -9 -5 4 -15 -5 -22 -19 -8 -19 -8 -24 1 -18
8 5 9 2 5 -10 -4 -10 -7 -21 -7 -24 0 -4 -5 0 -10 8 -6 9 -10 10 -10 3 0 -6 4
-14 9 -18 14 -8 32 30 24 51 -4 11 -2 15 4 11 5 -4 15 4 21 17 8 17 7 23 -3
23 -8 0 -11 -7 -7 -15z"/>
<path d="M700 707 c0 -9 -5 -16 -11 -14 -6 1 -13 -4 -14 -11 -2 -7 -1 -8 2 -2
2 5 9 8 14 4 11 -6 25 24 15 33 -3 4 -6 -1 -6 -10z"/>
<path d="M2215 711 c-3 -5 -2 -12 3 -15 5 -3 9 1 9 9 0 17 -3 19 -12 6z"/>
<path d="M1208 693 c7 -3 16 -2 19 1 4 3 -2 6 -13 5 -11 0 -14 -3 -6 -6z"/>
<path d="M1155 680 c19 -8 83 -14 74 -6 -2 2 -24 6 -49 9 -30 4 -38 3 -25 -3z"/>
<path d="M1258 683 c7 -3 16 -2 19 1 4 3 -2 6 -13 5 -11 0 -14 -3 -6 -6z"/>
<path d="M2237 683 c-10 -9 -9 -23 1 -23 5 0 9 7 9 15 0 17 -1 18 -10 8z"/>
<path d="M1120 670 c8 -5 22 -9 30 -9 10 0 8 3 -5 9 -27 12 -43 12 -25 0z"/>
<path d="M2356 652 c10 -19 25 -39 33 -45 9 -8 8 0 -5 21 -10 19 -25 39 -33
45 -9 8 -8 0 5 -21z"/>
<path d="M723 664 c3 -4 0 -13 -8 -21 -8 -8 -15 -20 -15 -26 1 -14 40 30 40
44 0 5 -5 9 -12 9 -6 0 -9 -3 -5 -6z"/>
<path d="M1335 660 c-20 -9 -20 -9 0 -9 11 0 38 4 60 8 l40 9 -40 0 c-22 0
-49 -3 -60 -8z"/>
<path d="M606 652 c-3 -6 -3 -18 1 -28 5 -13 3 -15 -7 -9 -9 5 -11 4 -6 -4 5
-7 2 -26 -5 -42 -7 -18 -15 -26 -19 -19 -4 6 -11 -1 -18 -17 -11 -26 -11 -27
3 -9 13 17 15 17 15 4 0 -9 -4 -20 -10 -23 -5 -3 -10 -11 -10 -18 0 -21 18 7
50 82 20 47 28 77 22 83 -6 6 -12 6 -16 0z"/>
<path d="M666 648 c3 -5 10 -6 15 -3 13 9 11 12 -6 12 -8 0 -12 -4 -9 -9z"/>
<path d="M1229 652 c11 -8 11 -10 0 -15 -10 -4 -8 -6 4 -6 21 -1 18 21 -4 27
-12 3 -12 2 0 -6z"/>
<path d="M1260 649 c0 -5 11 -9 25 -9 14 0 25 2 25 4 0 2 -11 6 -25 8 -14 3
-25 1 -25 -3z"/>
<path d="M1457 643 c-3 -5 -1 -26 3 -48 l8 -40 1 48 c1 45 -2 56 -12 40z"/>
<path d="M1483 595 c0 -27 2 -38 4 -22 2 15 2 37 0 50 -2 12 -4 0 -4 -28z"/>
<path d="M575 589 c-4 -6 -5 -12 -2 -15 2 -3 7 2 10 11 7 17 1 20 -8 4z"/>
<path d="M1298 543 c7 -3 16 -2 19 1 4 3 -2 6 -13 5 -11 0 -14 -3 -6 -6z"/>
<path d="M1168 523 c21 -8 13 -23 -13 -23 -28 0 -158 -25 -230 -45 -27 -8 -68
-18 -90 -24 -22 -6 -71 -19 -110 -29 -146 -40 -200 -51 -208 -43 -5 5 1 30 12
56 12 27 20 50 18 52 -5 4 -57 -113 -57 -126 0 -11 187 29 365 79 150 42 240
60 333 66 51 4 90 10 87 13 -7 6 -95 30 -110 30 -5 0 -4 -3 3 -6z"/>
<path d="M522 475 c-17 -37 -14 -45 4 -12 9 16 14 31 11 33 -2 2 -9 -7 -15
-21z"/>
<path d="M1075 455 c-33 -7 -114 -27 -180 -45 -239 -63 -424 -104 -433 -95 -2
1 8 28 22 59 31 71 23 74 -9 4 -37 -80 -36 -82 43 -73 37 4 74 11 82 15 8 4
34 10 58 14 24 3 63 12 88 21 25 8 53 15 63 15 10 0 34 6 52 14 19 8 48 16 66
19 17 3 36 8 41 11 30 18 215 46 285 42 86 -5 182 -42 190 -74 4 -13 5 -12 6
4 3 67 -203 105 -374 69z"/>
<path d="M2920 260 c0 -11 2 -20 4 -20 2 0 6 9 9 20 3 11 1 20 -4 20 -5 0 -9
-9 -9 -20z"/>
<path d="M2805 250 c-3 -5 -1 -10 4 -10 6 0 11 5 11 10 0 6 -2 10 -4 10 -3 0
-8 -4 -11 -10z"/>
<path d="M2838 243 c7 -3 16 -2 19 1 4 3 -2 6 -13 5 -11 0 -14 -3 -6 -6z"/>
<path d="M2525 120 c-19 -8 -19 -9 3 -9 12 -1 22 4 22 9 0 6 -1 10 -2 9 -2 0
-12 -4 -23 -9z"/>
</g>
</svg>
