<?xml version="1.0" standalone="no"?>
<!DOCTYPE svg PUBLIC "-//W3C//DTD SVG 20010904//EN"
 "http://www.w3.org/TR/2001/REC-SVG-20010904/DTD/svg10.dtd">
<svg version="1.0" xmlns="http://www.w3.org/2000/svg"
 width="300.000000pt" height="315.000000pt" viewBox="0 0 300.000000 315.000000"
 preserveAspectRatio="xMidYMid meet">
<metadata>
Created by potrace 1.10, written by Peter Selinger 2001-2011
</metadata>
<g transform="translate(0.000000,315.000000) scale(0.100000,-0.100000)"
fill="#000000" stroke="none">
<path d="M1380 3108 c0 -5 6 -8 13 -8 9 0 11 -23 10 -87 -2 -55 -6 -87 -13
-85 -5 1 -10 -2 -10 -8 0 -5 16 -10 36 -10 21 0 33 4 29 10 -4 6 -11 8 -16 5
-5 -4 -9 28 -9 76 l0 82 58 -86 c31 -48 59 -87 62 -87 3 0 6 42 8 93 1 50 7
94 12 95 21 7 9 17 -20 17 -16 0 -30 -3 -30 -7 0 -5 7 -8 15 -8 11 0 15 -12
15 -52 0 -50 -1 -51 -18 -32 -10 10 -28 35 -40 55 -19 31 -29 38 -62 41 -22 2
-40 0 -40 -4z"/>
<path d="M395 2780 c132 -132 242 -240 245 -240 3 0 -103 108 -235 240 -132
132 -242 240 -245 240 -3 0 103 -108 235 -240z"/>
<path d="M2545 2780 c-132 -132 -235 -240 -230 -240 6 0 118 108 250 240 132
132 235 240 230 240 -6 0 -118 -108 -250 -240z"/>
<path d="M1466 2823 c-3 -42 -3 -79 1 -82 5 -3 7 -209 5 -457 l-3 -452 -31 -6
c-17 -3 -29 -8 -27 -10 2 -2 24 -1 49 4 59 11 92 -9 119 -69 11 -25 20 -39 21
-31 0 8 -7 28 -15 43 -13 26 -13 28 3 23 20 -6 306 -33 432 -41 47 -3 132 -9
190 -15 168 -14 315 -22 308 -15 -3 4 -61 9 -129 13 l-123 7 -8 35 c-4 19 -8
50 -9 68 -1 17 -6 32 -12 32 -5 0 -7 -10 -4 -22 16 -63 19 -108 8 -108 -7 0
-10 4 -6 9 3 6 -4 52 -15 103 -24 113 -93 257 -156 326 l-43 49 22 20 c36 34
149 163 142 163 -4 0 -47 -37 -96 -82 l-90 -81 -32 30 c-40 38 -97 77 -103 71
-2 -3 11 -16 30 -29 l34 -24 -27 -33 -27 -34 -31 18 -31 18 24 49 25 48 -58
25 c-79 35 -167 61 -235 69 l-58 6 -1 37 c0 20 -2 48 -3 62 -6 49 -16 166 -22
250 -3 46 -6 86 -8 87 -2 2 -6 -31 -10 -74z m147 -388 l49 -7 -7 -36 c-4 -20
-10 -40 -13 -44 -4 -3 -32 -1 -64 4 -51 10 -57 14 -62 41 -10 51 -8 57 22 52
15 -2 49 -7 75 -10z m157 -48 c70 -31 72 -33 50 -77 l-19 -37 -58 28 c-32 16
-66 29 -77 29 -13 0 -16 5 -11 18 3 9 9 29 12 44 5 24 9 27 32 21 14 -3 46
-15 71 -26z m-93 -73 c128 -40 125 -35 64 -142 -57 -99 -52 -96 -124 -61 -22
10 -22 10 -2 -6 11 -9 30 -18 43 -22 12 -3 22 -11 22 -19 0 -18 1 -18 -52 6
l-45 20 28 97 c16 54 28 107 26 118 -2 17 -28 -70 -43 -142 -9 -45 -24 -73
-39 -73 -8 0 -15 8 -16 18 -2 45 -8 113 -14 176 l-6 68 38 -6 c21 -4 75 -18
120 -32z m313 -70 c0 -2 -15 -17 -32 -33 l-33 -30 -22 21 -22 20 26 34 27 33
28 -20 c15 -11 28 -22 28 -25z m-104 -42 l29 -24 -30 -25 c-17 -14 -52 -44
-78 -67 -27 -22 -52 -42 -55 -43 -4 -2 -18 6 -32 16 -18 15 -21 22 -13 33 11
13 65 106 85 145 11 22 12 22 38 5 15 -9 40 -28 56 -40z m200 -73 c52 -78 118
-219 106 -231 -4 -3 -23 -9 -43 -13 -34 -6 -37 -5 -49 27 -7 18 -20 51 -30 73
l-18 40 35 18 c19 10 32 21 29 24 -3 3 -21 -4 -39 -15 l-35 -20 -10 23 c-6 12
-25 39 -43 59 l-32 37 29 30 c15 16 33 28 39 26 5 -2 33 -37 61 -78z m-572
-12 c2 -31 -1 -57 -6 -57 -5 0 -2 -7 6 -16 20 -20 20 -24 -1 -24 -16 0 -18 10
-18 80 0 91 15 104 19 17z m505 -65 c7 -13 11 -25 9 -26 -36 -24 -199 -116
-205 -116 -13 0 -34 40 -27 52 4 7 14 2 27 -13 l19 -24 -15 25 c-14 25 -13 28
30 75 25 28 56 64 70 82 l25 32 27 -32 c16 -18 34 -43 40 -55z m-140 41 c-7
-10 -14 -20 -16 -22 -1 -2 -1 6 0 18 1 11 8 21 15 21 12 0 12 -3 1 -17z m-31
-25 c-2 -11 -11 -22 -20 -24 -17 -2 -17 -1 0 22 21 29 24 30 20 2z m-199 -27
c30 -15 56 -32 58 -37 1 -5 -12 -19 -31 -32 -19 -13 -52 -41 -75 -62 -22 -21
-48 -44 -58 -50 -16 -10 -16 -11 -1 -6 9 3 19 0 22 -7 2 -7 5 -4 5 6 1 23 20
21 55 -6 36 -29 28 -49 -14 -37 -17 5 -33 9 -35 9 -3 0 -20 8 -38 17 -34 18
-47 31 -47 52 0 14 36 16 45 2 10 -16 26 -1 21 18 -2 10 -7 52 -11 96 l-7 79
29 -7 c15 -4 52 -20 82 -35z m75 4 c27 -21 10 -38 -19 -19 -14 9 -22 20 -19
25 7 12 16 11 38 -6z m80 -22 c4 -10 1 -20 -9 -25 -8 -5 -12 -14 -9 -20 5 -8
1 -9 -10 -5 -10 4 -15 3 -11 -3 7 -11 -26 -51 -37 -44 -4 3 -5 -2 -2 -10 9
-24 -10 -19 -36 9 l-23 24 26 10 c15 6 32 19 39 31 7 11 18 20 24 20 7 0 14 7
18 15 7 20 22 19 30 -2z m269 -74 c16 -39 27 -73 25 -75 -4 -3 -192 -54 -202
-54 -3 0 -6 7 -6 16 0 9 -8 30 -17 46 -11 18 -14 32 -8 35 6 2 46 26 90 53 44
26 82 49 85 49 3 1 18 -31 33 -70z m-550 5 c4 -23 2 -31 -9 -31 -10 0 -14 12
-14 41 0 45 14 39 23 -10z m289 -71 c14 -27 29 -63 33 -82 l7 -33 -63 6 c-35
4 -80 9 -100 12 l-37 5 32 32 c17 18 44 49 60 70 16 20 32 37 36 37 4 0 18
-21 32 -47z m-126 23 c18 -19 18 -22 -6 -46 -20 -20 -21 -21 -45 -2 -22 18
-23 21 -9 41 18 24 39 27 60 7z m188 -64 c10 -29 22 -49 25 -44 3 5 15 11 26
14 11 3 55 15 99 27 43 12 80 20 81 19 2 -2 6 -27 10 -56 l7 -53 -64 6 c-34 3
-90 7 -122 10 -56 5 -87 22 -65 36 7 4 4 9 -5 12 -9 4 -16 15 -16 24 0 10 -7
29 -16 42 -16 22 -15 23 2 19 12 -2 26 -22 38 -56z m346 -76 c0 -28 -1 -28
-42 -22 -23 4 -43 8 -44 9 -1 1 -5 27 -8 58 l-7 55 38 10 38 9 12 -45 c7 -25
13 -58 13 -74z"/>
<path d="M1740 2349 c-7 -11 -10 -23 -7 -25 2 -2 9 7 15 21 14 30 7 33 -8 4z"/>
<path d="M2030 2129 c-22 -18 -22 -19 -3 -10 12 6 25 16 28 21 9 15 3 12 -25
-11z"/>
<path d="M2110 1970 c-13 -8 -12 -10 3 -10 9 0 17 5 17 10 0 12 -1 12 -20 0z"/>
<path d="M2148 1783 c6 -2 18 -2 25 0 6 3 1 5 -13 5 -14 0 -19 -2 -12 -5z"/>
<path d="M1451 2675 c-2 -33 -4 -71 -5 -85 -1 -14 -3 -48 -4 -77 l-2 -52 -57
-6 c-61 -7 -152 -32 -217 -60 -21 -9 -40 -14 -43 -11 -9 9 98 51 179 71 43 10
76 21 73 23 -2 3 -26 -1 -52 -8 -26 -6 -59 -14 -72 -16 -63 -12 -214 -96 -286
-160 -34 -29 -16 -19 74 44 34 24 67 42 73 40 5 -2 -16 -20 -48 -41 -71 -44
-109 -76 -101 -83 2 -3 20 8 38 24 40 34 81 62 90 62 4 0 16 -16 27 -35 l21
-34 -26 -21 c-33 -26 -39 -25 -59 5 -9 14 -19 23 -22 20 -3 -3 4 -16 16 -28
22 -23 22 -24 3 -41 -25 -23 -27 -22 -165 102 -63 56 -118 102 -122 102 -5 0
16 -26 47 -57 30 -32 67 -72 83 -90 l29 -32 -51 -69 c-89 -122 -127 -212 -145
-341 -10 -71 -15 -85 -32 -87 -11 -2 -105 -9 -210 -15 -104 -6 -194 -15 -200
-20 -5 -5 14 -9 45 -9 30 0 84 -2 120 -4 53 -3 57 -2 20 4 -25 4 158 8 407 8
l451 2 10 -27 c5 -16 13 -37 18 -47 4 -12 4 -17 -2 -13 -12 7 -177 24 -309 32
-55 3 -140 10 -190 15 -49 5 -144 11 -210 14 l-120 4 100 -12 c61 -8 94 -15
83 -20 -9 -4 -15 -15 -13 -24 1 -9 -3 -20 -9 -24 -7 -5 -4 -8 7 -8 12 0 17 8
18 28 1 15 7 -7 14 -48 7 -41 25 -106 40 -145 29 -73 99 -187 134 -219 12 -11
21 -24 21 -30 0 -6 -30 -43 -68 -83 -55 -59 -71 -71 -92 -67 -22 4 -29 -3 -61
-68 -19 -40 -115 -230 -213 -423 l-178 -350 89 -3 c83 -4 356 8 668 29 234 15
311 12 344 -12 22 -16 42 -20 100 -20 39 0 75 2 80 5 13 9 100 -89 121 -136
l18 -41 11 39 c5 21 13 51 16 66 12 46 27 52 98 38 34 -7 81 -21 105 -31 23
-10 42 -14 42 -9 0 9 -117 90 -131 90 -5 0 -9 3 -9 8 0 4 62 4 137 1 76 -4
267 -7 426 -8 309 -1 302 -3 269 51 -70 113 -180 278 -332 493 -39 55 -77 114
-85 132 -8 17 -18 33 -23 35 -4 1 -29 30 -54 63 -25 33 -76 92 -111 130 -36
39 -61 72 -56 73 15 6 94 123 128 189 45 90 90 266 71 278 -6 3 -10 -3 -10
-14 0 -11 -5 -43 -11 -70 -10 -49 -11 -50 -37 -40 -15 6 -28 10 -29 10 -20 -6
-23 5 -18 57 4 31 10 60 13 64 6 6 177 20 430 35 124 7 137 24 15 19 -49 -2
-289 -4 -535 -5 l-446 -1 -12 -34 c-6 -19 -17 -40 -25 -46 -8 -7 -12 -16 -9
-21 3 -5 0 -44 -5 -86 -6 -43 -13 -123 -16 -178 -3 -55 -10 -138 -15 -185 -5
-47 -10 -113 -10 -147 0 -53 -3 -63 -17 -63 -17 0 -18 21 -15 315 2 294 4 315
20 315 20 0 64 29 45 30 -6 0 -14 -4 -17 -9 -3 -4 -24 -11 -47 -15 -32 -5 -48
-2 -74 14 -64 40 -83 156 -32 197 15 12 23 31 24 58 4 81 13 182 22 270 6 50
13 137 16 195 3 58 10 146 16 195 6 50 9 122 7 160 l-4 70 -3 -60z m-21 -269
c0 -42 -1 -44 -37 -50 -21 -3 -48 -9 -60 -12 -18 -5 -23 0 -34 35 -7 23 -10
44 -7 47 3 3 34 9 69 13 35 5 65 9 67 10 1 0 2 -19 2 -43z m-146 -13 c4 -16 9
-36 12 -45 4 -12 0 -18 -10 -18 -9 0 -41 -11 -72 -25 -31 -14 -59 -25 -63 -25
-7 0 -41 58 -41 70 0 7 40 26 120 56 47 18 47 18 54 -13z m132 -150 c-6 -99
-13 -122 -38 -123 -7 0 -26 53 -33 93 -3 13 -12 43 -20 67 -8 24 -14 45 -11
47 3 3 72 18 99 22 5 1 6 -47 3 -106z m-107 50 c6 -16 15 -49 21 -74 5 -26 14
-58 19 -72 9 -23 7 -26 -39 -45 l-49 -20 -24 41 c-58 98 -78 139 -73 144 11
11 102 51 117 52 9 1 22 -11 28 -26z m-110 -126 c28 -49 51 -90 51 -92 0 -1
-12 -10 -26 -20 -25 -16 -26 -16 -82 32 -94 80 -106 93 -96 102 12 12 99 70
101 68 0 -1 24 -42 52 -90z m-237 13 l27 -31 -39 -52 c-22 -29 -40 -55 -40
-59 0 -4 -15 1 -32 12 -18 11 -37 20 -43 20 -5 0 6 -10 25 -21 46 -28 45 -26
31 -43 -6 -8 -20 -38 -31 -67 -18 -50 -21 -54 -50 -53 -58 3 -61 7 -38 66 21
56 69 150 93 182 15 19 15 19 38 -2 13 -12 27 -22 33 -22 5 1 -4 11 -20 24
-29 24 -29 24 -10 50 11 14 21 26 24 26 3 0 18 -14 32 -30z m117 -136 c82 -95
82 -96 66 -121 -15 -22 -19 -23 -33 -11 -9 8 -55 36 -102 63 -47 27 -87 50
-89 52 -4 3 68 113 74 113 1 0 39 -43 84 -96z m-4 58 c-3 -3 -16 5 -28 17
l-22 23 28 -17 c15 -10 25 -20 22 -23z m335 3 c0 -8 -9 -15 -20 -15 -22 0 -27
15 -7 23 21 9 27 7 27 -8z m-50 -8 c0 -7 -17 -19 -37 -27 -21 -8 -41 -16 -45
-18 -5 -2 -8 2 -8 10 0 7 17 20 38 30 47 20 52 21 52 5z m-244 -16 c-3 -5 4
-16 17 -24 12 -9 35 -27 51 -41 30 -26 56 -34 56 -16 0 11 63 45 122 66 44 15
43 21 32 -109 l-7 -76 -26 18 c-14 11 -42 35 -61 55 -19 20 -39 36 -43 36 -4
0 -21 -10 -37 -22 l-29 -21 -20 24 c-12 13 -31 39 -43 56 -13 18 -30 33 -38
33 -11 1 -10 4 4 15 23 17 30 19 22 6z m133 -54 c-15 -14 -24 -16 -31 -9 -8 8
-4 17 13 31 31 25 47 5 18 -22z m-256 -56 c37 -22 71 -41 75 -41 4 0 18 -9 31
-19 l25 -19 -19 -41 c-14 -32 -22 -40 -37 -36 -10 4 -28 8 -41 11 -13 2 -43
10 -66 19 -23 8 -44 14 -46 14 -3 0 -19 2 -36 6 -25 6 -29 10 -23 28 13 47 54
128 61 124 5 -3 38 -23 76 -46z m275 -30 c12 -10 18 -22 14 -26 -4 -5 -1 -5 6
-1 21 12 35 -5 15 -18 -20 -14 -61 -30 -51 -21 3 3 -5 17 -18 31 -21 20 -23
26 -12 39 17 19 21 18 46 -4z m15 -134 c11 -10 18 -19 16 -22 -3 -2 -51 -7
-107 -11 l-102 -6 20 52 c50 127 53 129 107 62 25 -31 54 -65 66 -75z m-370
34 c15 -6 27 -9 27 -6 0 2 19 -2 41 -10 23 -8 51 -15 63 -15 30 0 48 -14 41
-32 -5 -12 -30 -17 -108 -22 -56 -3 -135 -9 -175 -12 l-74 -7 7 59 c11 99 6
94 84 73 37 -10 80 -23 94 -28z m446 16 c7 -19 9 -41 5 -50 -5 -13 -10 -14
-32 -4 -26 12 -62 42 -62 52 0 6 53 34 67 35 6 0 16 -15 22 -33z m-28 -69 c1
-7 0 -17 -1 -23 -2 -5 -3 -17 -2 -26 0 -14 -12 -16 -79 -16 -58 1 -79 4 -79
14 0 7 3 13 8 13 102 5 125 9 132 20 5 8 6 18 4 22 -3 4 0 8 5 8 6 0 12 -6 12
-12z m-291 -58 c0 -5 -7 -10 -16 -10 -8 0 -12 5 -9 10 3 6 10 10 16 10 5 0 9
-4 9 -10z m105 0 c-3 -6 -18 -8 -32 -6 -40 8 -40 16 1 16 22 0 35 -4 31 -10z
m-255 -4 c0 -3 -4 -8 -10 -11 -5 -3 -10 -1 -10 4 0 6 5 11 10 11 6 0 10 -2 10
-4z m862 -60 c13 -19 9 -21 -41 -22 -28 0 -56 -6 -64 -12 -11 -9 -16 -7 -25
14 -7 14 -12 26 -12 28 0 9 136 1 142 -8z m188 3 c0 -4 -18 -9 -40 -11 -28 -2
-40 0 -40 10 0 9 12 12 40 10 22 -1 40 -5 40 -9z m30 1 c0 -5 -4 -10 -10 -10
-5 0 -10 5 -10 10 0 6 5 10 10 10 6 0 10 -4 10 -10z m-147 -7 c-7 -2 -21 -2
-30 0 -10 3 -4 5 12 5 17 0 24 -2 18 -5z m-1025 -9 c17 -5 22 -14 22 -40 0
-18 4 -44 10 -58 7 -21 6 -26 -5 -26 -21 0 -27 -1 -52 -11 -25 -9 -28 -4 -38
84 -6 55 -6 57 17 57 13 0 33 -3 46 -6z m1317 -59 c-7 -52 -9 -56 -29 -51 -11
3 -60 16 -108 27 -51 13 -85 26 -84 33 2 6 1 8 -1 4 -10 -18 -31 -7 -26 12 5
17 14 20 72 21 36 1 91 4 121 8 30 4 56 6 58 5 2 -1 0 -28 -3 -59z m-1081 36
c27 -3 51 -12 54 -18 4 -14 -23 -18 -31 -5 -2 4 -3 2 -1 -4 2 -10 -50 -27
-146 -49 -8 -2 -27 -6 -42 -10 -23 -6 -28 -4 -28 11 -1 11 -3 36 -6 57 l-6 39
79 -7 c43 -5 100 -11 127 -14z m787 -96 c-16 -36 -34 -65 -40 -65 -5 0 -33 28
-62 63 -28 34 -56 61 -61 60 -4 -2 -8 3 -8 11 0 9 27 15 98 22 117 11 119 7
73 -91z m-543 79 c22 -5 22 -6 -17 -47 -22 -23 -49 -54 -61 -69 -12 -16 -25
-28 -30 -28 -11 0 -70 121 -70 143 0 13 13 14 78 11 42 -3 87 -7 100 -10z
m346 -6 c3 -13 6 -40 6 -61 0 -35 -2 -37 -20 -27 -14 7 -20 21 -20 45 0 60 22
88 34 43z m-517 -60 l20 -43 -106 -62 c-96 -56 -107 -61 -118 -46 -15 19 -55
124 -51 129 2 2 18 5 35 9 18 3 44 10 58 15 14 5 39 12 55 15 15 3 39 9 52 14
34 14 32 15 55 -31z m270 19 c15 -15 14 -17 -10 -28 -15 -7 -27 -17 -27 -24 0
-6 -11 -11 -24 -11 -14 0 -23 3 -21 6 2 4 5 23 7 42 2 32 4 35 31 33 15 -1 36
-9 44 -18z m503 13 c0 -27 -33 -88 -45 -84 -11 5 -11 10 0 32 8 15 16 35 19
45 6 18 26 24 26 7z m-216 -42 c-4 -7 -3 -8 4 -4 7 4 12 2 12 -5 0 -7 3 -9 7
-6 3 4 12 -1 19 -11 9 -12 9 -22 1 -37 -9 -17 -8 -18 5 -7 13 10 19 9 37 -6
18 -13 21 -23 16 -45 -9 -34 -14 -34 -49 4 -16 17 -40 38 -53 46 -17 12 -22
22 -19 42 2 14 5 37 5 51 1 22 3 23 12 7 5 -9 7 -22 3 -29z m344 12 c50 -13
92 -27 92 -31 0 -6 -48 -125 -55 -137 -2 -2 -176 96 -184 104 -3 3 3 18 12 34
10 16 18 32 17 35 -1 21 2 27 13 23 6 -3 54 -15 105 -28z m-559 -77 c1 -41 3
-80 4 -86 1 -6 -5 -12 -13 -14 -13 -3 -15 8 -14 59 1 35 -3 71 -8 81 -12 24
-3 48 15 41 10 -4 15 -26 16 -81z m-155 10 c6 -7 -45 -49 -56 -45 -5 1 -7 -3
-5 -9 4 -21 -22 -20 -33 1 -9 17 -5 27 32 70 l43 50 6 -30 c4 -17 9 -34 13
-37z m-434 -23 c12 -33 27 -63 31 -66 16 -10 9 -20 -29 -42 l-38 -21 -26 53
c-15 30 -30 70 -33 89 -7 34 -6 36 27 40 18 2 36 5 39 5 4 1 17 -25 29 -58z
m541 8 c0 -29 2 -75 4 -101 3 -41 1 -48 -12 -43 -8 3 -27 9 -41 12 -34 9 -112
53 -112 64 0 5 8 11 18 15 9 3 42 28 72 55 30 28 58 50 62 50 5 0 8 -24 9 -52z
m305 -72 c-3 -12 -74 -50 -118 -63 l-38 -11 4 71 c3 40 5 84 5 100 1 27 1 27
75 -30 41 -32 74 -62 72 -67z m466 110 l28 -6 -20 -51 c-11 -28 -28 -66 -38
-85 l-17 -34 -38 23 -37 22 19 35 c10 19 24 52 30 73 9 27 17 37 29 33 10 -2
29 -7 44 -10z m-1021 -37 c9 -18 7 -25 -14 -48 -74 -79 -100 -109 -115 -134
-9 -15 -19 -26 -23 -25 -10 4 -79 97 -79 106 0 4 19 17 43 30 23 13 64 35 91
50 47 26 48 26 62 7 8 -10 14 -14 14 -8 0 7 -4 15 -10 18 -15 9 -12 25 5 25 8
0 19 -9 26 -21z m684 12 c3 -5 1 -12 -5 -16 -5 -3 -10 -12 -10 -18 0 -7 9 -1
19 12 12 16 20 20 25 12 4 -6 41 -30 82 -52 40 -22 76 -44 79 -49 3 -4 -11
-32 -31 -61 -34 -52 -11 -33 31 25 l21 28 37 -19 c20 -10 37 -21 37 -24 0 -9
-89 -123 -99 -127 -4 -1 -26 19 -47 45 -21 26 -49 58 -61 71 -13 13 -46 50
-73 83 -44 52 -48 62 -37 79 13 22 23 25 32 11z m-635 -74 c0 -16 -51 -58 -61
-51 -13 8 -11 17 12 46 21 25 49 28 49 5z m610 -28 c0 -10 -4 -19 -8 -19 -15
0 -31 22 -25 36 7 18 33 5 33 -17z m-86 -24 c-21 -16 -44 -20 -44 -6 0 5 10
15 23 24 28 19 49 3 21 -18z m-469 12 c29 -22 9 -40 -23 -21 l-27 16 24 -19
24 -20 -53 -90 -53 -91 -31 20 c-17 10 -41 26 -53 35 -43 30 -23 5 26 -32 48
-37 48 -37 34 -66 -8 -16 -19 -31 -24 -35 -11 -6 -64 26 -114 70 l-30 26 22
15 c12 9 28 21 35 28 7 6 35 30 61 51 27 21 70 58 95 82 52 48 59 50 87 31z
m596 -27 c6 -16 15 -28 19 -25 5 3 11 1 14 -4 4 -5 1 -13 -4 -16 -13 -8 -52
24 -44 36 3 5 -2 6 -10 3 -18 -7 -19 -3 -10 20 9 25 24 19 35 -14z m-901 -38
l41 -53 -30 -35 -31 -34 -50 67 c-27 38 -50 70 -50 73 0 7 63 39 71 37 4 -1
26 -26 49 -55z m180 29 c0 -3 -18 -16 -40 -29 -29 -16 -38 -18 -34 -7 3 8 9
13 13 11 6 -4 32 19 31 29 -1 25 1 27 15 15 8 -7 15 -15 15 -19z m688 -27 c37
-31 91 -77 120 -102 l52 -46 -27 -23 c-16 -13 -46 -36 -68 -52 l-41 -29 -21
39 -21 39 30 21 30 22 24 -29 c13 -16 23 -24 24 -18 0 6 -9 19 -20 29 -19 17
-19 19 -3 38 21 24 8 18 -51 -25 l-39 -28 -54 90 -54 91 23 19 c13 11 24 19
26 20 2 0 34 -25 70 -56z m-458 -1 c0 -7 -2 -13 -5 -13 -4 0 -73 30 -84 37 -1
1 0 6 3 12 9 13 86 -18 86 -36z m320 27 c0 -4 -10 -10 -22 -13 -13 -4 -32 -13
-43 -22 -19 -14 -19 -15 8 -5 16 5 37 14 47 20 16 8 25 -2 70 -81 48 -86 50
-92 33 -105 -24 -18 -124 -52 -123 -41 0 1 -8 28 -19 60 -11 31 -18 57 -16 57
2 0 -5 25 -15 55 l-19 56 27 10 c15 6 34 15 42 19 16 8 30 4 30 -10z m-336
-99 c-8 -25 -17 -57 -20 -71 -3 -14 -10 -39 -15 -57 l-10 -31 -52 21 c-97 41
-95 37 -59 96 18 28 32 53 32 56 0 2 9 19 20 38 l21 35 48 -21 49 -20 -14 -46z
m106 79 c0 -5 -2 -10 -4 -10 -3 0 -8 5 -11 10 -3 6 -1 10 4 10 6 0 11 -4 11
-10z m-37 -52 c3 -29 9 -89 13 -132 l7 -79 -24 6 c-73 17 -89 18 -89 8 0 -6 3
-10 8 -9 4 1 30 -2 57 -6 l50 -7 1 -45 c1 -36 -2 -44 -17 -44 -18 0 -122 20
-127 25 -1 1 9 47 23 101 15 55 28 106 30 114 2 8 10 39 17 68 9 36 18 52 29
52 12 0 18 -13 22 -52z m167 27 c5 -14 12 -36 14 -48 2 -12 18 -73 35 -135 17
-62 31 -116 31 -121 0 -8 -95 -31 -127 -31 -9 0 -13 14 -13 44 l0 44 43 7 c23
4 49 12 57 17 16 10 10 9 -69 -7 -32 -7 -33 -6 -28 21 3 16 9 67 13 114 7 80
9 93 12 113 4 16 23 5 32 -18z m-560 -45 c0 -5 -5 -10 -11 -10 -5 0 -7 5 -4
10 3 6 8 10 11 10 2 0 4 -4 4 -10z m440 0 c0 -5 -7 -10 -16 -10 -8 0 -12 5 -9
10 3 6 10 10 16 10 5 0 9 -4 9 -10z m-457 -134 c56 -50 213 -131 275 -141 44
-7 49 -25 6 -25 -37 0 -342 -98 -309 -99 11 -1 70 15 130 35 133 43 247 67
256 53 3 -6 12 -9 19 -7 7 2 26 -15 41 -37 24 -34 29 -53 34 -130 10 -159 16
-215 24 -211 4 3 6 29 4 58 -5 108 -4 309 3 319 12 20 152 1 303 -42 173 -49
181 -51 181 -38 0 5 -7 9 -15 9 -8 0 -66 15 -128 34 -62 19 -140 40 -175 47
l-62 13 71 18 c101 26 186 67 273 132 42 31 76 52 76 47 0 -24 -168 -131 -263
-167 -74 -28 -88 -42 -18 -18 23 8 48 11 54 8 7 -4 9 -3 4 1 -4 5 19 22 50 38
32 16 87 52 121 79 l64 50 26 -23 c72 -62 101 -93 96 -101 -3 -4 1 -8 8 -8 19
0 80 -92 69 -103 -14 -14 -26 -3 -76 73 -38 57 -53 71 -83 79 -74 19 -102 22
-102 13 0 -5 26 -15 59 -22 73 -15 73 -15 107 -72 38 -62 318 -479 366 -545
21 -29 38 -55 38 -58 0 -12 -87 9 -300 73 -169 51 -204 57 -335 57 -137 0
-194 -13 -259 -58 -26 -18 -30 -19 -40 -5 -12 16 -76 58 -88 58 -5 0 -8 -4 -8
-10 0 -5 6 -10 13 -10 24 0 74 -54 97 -103 27 -58 72 -97 168 -144 39 -20 72
-40 72 -45 0 -4 -20 -8 -46 -8 -43 0 -46 -2 -61 -37 -8 -21 -17 -40 -19 -42
-2 -2 -32 25 -66 60 -35 35 -91 90 -125 122 -56 52 -63 62 -69 107 -5 37 -13
56 -31 70 -32 25 -137 64 -253 94 -128 32 -150 42 -150 65 0 23 81 54 180 70
l65 10 -77 -4 c-74 -4 -176 -38 -192 -63 -20 -34 27 -60 164 -92 52 -13 99
-27 105 -31 5 -5 -21 -9 -61 -9 -85 0 -191 -22 -439 -90 -148 -41 -285 -68
-285 -57 0 3 17 43 39 89 21 46 73 160 116 253 143 313 150 327 212 381 31 27
63 57 72 67 8 9 18 17 21 17 3 -1 27 -20 53 -44z m208 -10 c30 -13 61 -26 71
-29 14 -5 15 -12 6 -46 -6 -23 -15 -41 -20 -41 -12 0 -158 61 -158 66 0 10 35
74 41 74 3 0 31 -11 60 -24z m612 -11 c9 -20 17 -37 17 -39 0 -5 -146 -66
-158 -66 -8 0 -20 40 -23 74 0 8 114 63 137 65 6 1 18 -15 27 -34z m-1043 -79
c0 -10 -51 -106 -59 -110 -5 -4 -13 -21 -16 -38 -4 -18 -16 -48 -26 -68 -26
-52 -149 -311 -149 -316 0 -2 -18 -40 -39 -84 l-39 -80 41 6 c82 11 211 41
472 112 112 30 146 35 250 36 106 1 126 -2 173 -23 37 -17 54 -30 57 -47 3
-13 7 -35 10 -48 3 -14 11 -31 18 -38 6 -7 19 -22 27 -32 14 -18 13 -19 -28
-13 -30 3 -49 13 -60 28 -15 22 -17 22 -211 16 -200 -6 -318 -17 -451 -42
-210 -40 -246 -45 -310 -45 -39 0 -70 2 -70 5 0 34 333 708 345 698 4 -5 5 -3
1 4 -11 19 31 93 49 87 8 -4 15 -7 15 -8z m660 -86 c0 -11 -3 -20 -8 -20 -4 0
-13 9 -20 20 -11 18 -10 20 8 20 13 0 20 -7 20 -20z m814 -35 c-3 -8 7 -32 23
-52 16 -21 67 -94 113 -163 46 -69 102 -152 125 -185 77 -115 145 -224 145
-235 0 -14 -192 -6 -375 15 -66 8 -147 17 -180 20 -33 3 -87 9 -120 14 -33 5
-100 9 -150 11 -179 4 -167 2 -192 39 -13 19 -23 39 -23 46 0 18 102 64 168
76 108 21 235 3 472 -66 120 -34 170 -48 225 -61 33 -8 68 -17 78 -20 11 -3
-57 106 -165 268 -101 150 -185 276 -186 281 -3 5 21 19 45 26 1 1 0 -6 -3
-14z m-349 -616 c27 -5 44 -4 54 4 12 10 14 9 8 -7 -6 -16 -5 -17 8 -6 8 7 15
9 15 4 0 -5 5 -2 10 6 9 13 10 13 10 0 0 -12 18 -15 100 -15 55 0 100 -3 100
-6 0 -9 -68 -21 -79 -14 -8 4 -130 5 -302 2 -14 0 -38 8 -54 19 l-29 19 29 6
c30 6 58 3 130 -12z m-490 -18 c20 -15 42 -21 76 -21 26 0 51 -4 54 -10 7 -11
-1 -13 -65 -10 -25 1 -53 9 -62 17 -10 9 -43 18 -75 21 -53 4 -447 -12 -553
-23 -25 -3 -40 -1 -35 3 25 23 366 53 542 47 76 -2 96 -6 118 -24z"/>
<path d="M1381 2394 c0 -11 3 -14 6 -6 3 7 2 16 -1 19 -3 4 -6 -2 -5 -13z"/>
<path d="M1190 2371 c0 -6 4 -13 10 -16 6 -3 7 1 4 9 -7 18 -14 21 -14 7z"/>
<path d="M810 1970 c8 -5 22 -9 30 -9 10 0 8 3 -5 9 -27 12 -43 12 -25 0z"/>
<path d="M1117 1953 c-4 -3 -7 -11 -7 -17 0 -6 5 -5 12 2 6 6 9 14 7 17 -3 3
-9 2 -12 -2z"/>
<path d="M1075 1869 c-9 -17 -15 -33 -13 -35 3 -2 12 12 21 31 21 43 13 47 -8
4z"/>
<path d="M826 1829 c-7 -39 -8 -74 -1 -67 7 7 19 98 12 98 -2 0 -7 -14 -11
-31z"/>
<path d="M785 1610 c-3 -5 -1 -10 4 -10 6 0 11 5 11 10 0 6 -2 10 -4 10 -3 0
-8 -4 -11 -10z"/>
<path d="M1065 1555 c4 -11 10 -28 12 -37 3 -10 9 -18 14 -18 5 0 3 12 -3 28
-14 33 -35 57 -23 27z"/>
<path d="M815 1430 c-13 -6 -15 -9 -5 -9 8 0 22 4 30 9 18 12 2 12 -25 0z"/>
<path d="M2110 1430 c8 -5 22 -10 30 -10 13 0 13 1 0 10 -8 5 -22 10 -30 10
-13 0 -13 -1 0 -10z"/>
<path d="M2010 1287 c0 -3 12 -12 26 -22 15 -9 23 -12 20 -6 -7 11 -46 35 -46
28z"/>
<path d="M1053 1158 c-23 -30 -24 -41 -2 -21 12 12 20 25 17 28 -3 3 -10 0
-15 -7z"/>
<path d="M909 1269 c-23 -19 -23 -20 -2 -10 12 6 25 16 28 21 10 16 -1 12 -26
-11z"/>
<path d="M965 1103 c17 -15 29 -30 28 -35 -2 -4 1 -7 5 -5 5 1 42 -17 83 -40
73 -42 158 -77 166 -69 2 2 -13 9 -34 16 -57 18 -162 77 -214 121 -52 43 -81
54 -34 12z"/>
<path d="M885 1054 l-50 -14 55 6 c30 3 59 9 65 15 12 12 -7 10 -70 -7z"/>
<path d="M1035 971 c-6 -11 9 -23 19 -14 9 9 7 23 -3 23 -6 0 -12 -4 -16 -9z"/>
<path d="M1876 971 c-3 -5 1 -11 9 -15 15 -6 29 7 18 18 -9 9 -21 8 -27 -3z"/>
<path d="M1495 829 c-8 -103 2 -135 44 -146 l26 -7 -30 -8 c-17 -4 6 -6 57 -3
75 3 87 2 91 -13 4 -14 6 -13 12 6 6 18 15 22 49 22 22 0 59 5 81 11 22 5 46
11 52 12 29 7 73 61 73 91 0 35 -10 28 -25 -17 -7 -21 -22 -38 -45 -49 -47
-23 -73 -23 -35 1 33 20 73 61 59 61 -5 -1 -25 -14 -44 -30 -19 -17 -39 -30
-46 -30 -6 0 -47 -11 -90 -25 -125 -41 -201 -21 -174 45 15 37 7 60 -21 60
-19 0 -21 5 -17 55 1 30 0 55 -3 55 -4 0 -10 -41 -14 -91z m45 -52 c0 -7 -9
-23 -20 -37 l-20 -25 0 48 c0 45 1 47 20 37 11 -6 20 -16 20 -23z"/>
<path d="M1240 885 c0 -8 5 -15 10 -15 6 0 10 7 10 15 0 8 -4 15 -10 15 -5 0
-10 -7 -10 -15z"/>
<path d="M1676 892 c-3 -6 -1 -14 5 -17 15 -10 25 3 12 16 -7 7 -13 7 -17 1z"/>
<path d="M748 869 c-10 -10 -14 -19 -9 -19 6 0 13 5 16 10 4 6 11 8 16 5 5 -3
6 1 3 9 -3 9 -7 16 -8 15 0 0 -9 -9 -18 -20z"/>
<path d="M2160 780 c0 -5 5 -10 11 -10 5 0 7 5 4 10 -3 6 -8 10 -11 10 -2 0
-4 -4 -4 -10z"/>
<path d="M680 690 c-17 -41 -6 -50 14 -11 18 35 19 41 7 41 -5 0 -14 -14 -21
-30z"/>
<path d="M2221 704 c0 -11 3 -14 6 -6 3 7 2 16 -1 19 -3 4 -6 -2 -5 -13z"/>
<path d="M2235 680 c-3 -5 -1 -10 4 -10 6 0 11 5 11 10 0 6 -2 10 -4 10 -3 0
-8 -4 -11 -10z"/>
<path d="M717 648 c-10 -17 -16 -33 -13 -35 2 -3 12 9 21 27 21 41 15 48 -8 8z"/>
<path d="M1308 663 c-27 -2 -48 -8 -48 -13 0 -9 69 -4 145 10 l40 8 -45 -1
c-25 0 -66 -2 -92 -4z"/>
<path d="M2255 650 c-3 -5 -1 -10 4 -10 6 0 11 5 11 10 0 6 -2 10 -4 10 -3 0
-8 -4 -11 -10z"/>
<path d="M1176 629 c-14 -11 -26 -25 -26 -29 0 -16 60 -41 182 -76 132 -38
131 -37 124 -26 -3 5 -54 21 -113 37 -128 33 -165 50 -161 72 2 9 19 22 38 29
32 11 33 13 9 13 -15 1 -38 -8 -53 -20z"/>
<path d="M1468 463 c7 -3 16 -2 19 1 4 3 -2 6 -13 5 -11 0 -14 -3 -6 -6z"/>
<path d="M1460 440 c0 -5 7 -10 15 -10 8 0 15 5 15 10 0 6 -7 10 -15 10 -8 0
-15 -4 -15 -10z"/>
<path d="M1730 1074 c0 -6 7 -19 16 -30 14 -18 14 -18 3 6 -14 31 -19 36 -19
24z"/>
<path d="M2225 860 c3 -5 8 -10 11 -10 2 0 4 5 4 10 0 6 -5 10 -11 10 -5 0 -7
-4 -4 -10z"/>
<path d="M741 2586 c-11 -14 -11 -16 3 -16 9 0 16 -5 16 -12 0 -6 2 -9 5 -6 3
3 2 15 -3 27 -7 20 -9 21 -21 7z"/>
<path d="M2220 2558 c0 -9 -11 -25 -24 -36 -18 -14 -22 -22 -14 -30 7 -7 18
-2 35 18 19 23 22 33 14 47 -9 16 -10 16 -11 1z"/>
<path d="M720 2551 c0 -9 60 -44 66 -38 2 1 0 7 -4 12 -10 15 -62 36 -62 26z"/>
<path d="M682 2528 c-6 -6 -12 -16 -12 -22 0 -5 3 -7 6 -3 4 3 22 0 40 -8 19
-8 34 -10 34 -4 0 5 -11 14 -24 19 -13 5 -26 14 -28 20 -2 7 -7 7 -16 -2z"/>
<path d="M1240 2515 c0 -9 5 -15 11 -13 6 2 11 8 11 13 0 5 -5 11 -11 13 -6 2
-11 -4 -11 -13z"/>
<path d="M1676 2523 c-11 -11 -6 -23 9 -23 8 0 15 4 15 9 0 13 -16 22 -24 14z"/>
<path d="M2253 2523 c4 -4 -4 -19 -18 -33 -23 -24 -24 -28 -10 -40 12 -10 15
-10 15 3 0 8 7 20 15 27 18 15 20 50 3 50 -6 0 -8 -3 -5 -7z"/>
<path d="M625 2470 c-3 -5 0 -7 8 -5 18 8 54 -32 41 -45 -7 -7 -17 -4 -29 10
-20 22 -40 26 -51 8 -4 -6 -3 -8 3 -5 13 8 55 -37 46 -49 -4 -5 9 6 30 25 l37
35 -28 18 c-30 20 -48 23 -57 8z"/>
<path d="M1538 2473 c7 -3 16 -2 19 1 4 3 -2 6 -13 5 -11 0 -14 -3 -6 -6z"/>
<path d="M1640 2458 c41 -11 101 -30 133 -44 31 -13 57 -21 57 -18 0 8 -106
53 -137 59 -16 2 -44 9 -63 15 -19 5 -42 10 -50 9 -8 0 19 -10 60 -21z"/>
<path d="M2276 2467 c-27 -20 -18 -62 14 -64 23 -1 23 -1 2 4 -14 3 -22 11
-20 20 4 20 35 40 45 29 4 -5 2 -11 -5 -13 -13 -5 -7 -23 7 -23 14 0 20 37 8
49 -14 14 -29 14 -51 -2z"/>
<path d="M1035 2440 c-4 -6 -3 -16 3 -22 6 -6 12 -6 17 2 4 6 3 16 -3 22 -6 6
-12 6 -17 -2z"/>
<path d="M1877 2435 c-8 -18 11 -31 25 -17 11 11 3 32 -12 32 -4 0 -10 -7 -13
-15z"/>
<path d="M1900 2346 c36 -24 71 -51 79 -60 15 -17 36 -22 26 -6 -10 15 -146
110 -159 110 -6 0 18 -20 54 -44z"/>
<path d="M879 2210 c-12 -16 -27 -26 -32 -23 -6 4 -7 1 -2 -6 4 -7 -1 -22 -13
-34 -27 -30 -100 -176 -107 -215 -3 -17 -10 -43 -15 -57 -6 -15 -10 -32 -9
-38 0 -7 16 33 34 89 34 102 76 181 141 267 20 26 33 47 30 47 -3 0 -15 -13
-27 -30z"/>
<path d="M2050 2222 c0 -5 7 -15 16 -23 42 -35 117 -169 149 -267 9 -29 19
-51 21 -49 2 2 -3 24 -11 48 -9 24 -14 52 -11 62 2 9 0 15 -4 12 -5 -3 -19 16
-31 42 -40 84 -129 204 -129 175z"/>
<path d="M726 2125 c-3 -9 0 -15 9 -15 16 0 20 16 6 24 -5 3 -11 -1 -15 -9z"/>
<path d="M2190 2126 c0 -9 5 -16 10 -16 6 0 10 4 10 9 0 6 -4 13 -10 16 -5 3
-10 -1 -10 -9z"/>
<path d="M2274 1926 c-8 -22 3 -33 18 -18 9 9 9 15 0 24 -9 9 -13 7 -18 -6z"/>
<path d="M642 1919 c2 -6 8 -10 13 -10 5 0 11 4 13 10 2 6 -4 11 -13 11 -9 0
-15 -5 -13 -11z"/>
<path d="M690 1810 c-9 -6 -10 -10 -3 -10 6 0 10 -9 8 -20 -2 -11 0 -20 6 -20
5 0 9 14 9 30 0 34 0 33 -20 20z"/>
<path d="M25 1800 c11 -4 28 -30 39 -56 10 -27 24 -62 31 -79 7 -16 16 -39 20
-50 6 -17 10 -14 28 23 12 23 24 42 27 42 4 0 13 -18 20 -40 7 -22 16 -37 20
-33 7 9 40 87 61 141 7 19 18 40 26 48 12 12 10 14 -19 14 -22 0 -29 -3 -20
-9 11 -7 11 -17 -3 -56 -26 -77 -29 -80 -48 -40 -16 34 -16 37 0 63 10 15 22
30 28 34 5 4 -44 7 -110 7 -74 0 -112 -3 -100 -9z m122 -49 c17 -41 18 -52 7
-72 -12 -23 -13 -23 -19 -4 -4 11 -15 41 -26 67 -23 57 -23 58 -1 58 12 0 25
-16 39 -49z m63 42 c0 -5 -4 -14 -9 -22 -7 -11 -11 -9 -20 8 -10 18 -9 21 9
21 11 0 20 -3 20 -7z"/>
<path d="M1440 1803 c-8 -3 -27 -17 -42 -31 -39 -36 -40 -111 -3 -147 39 -40
127 -32 162 14 17 23 16 92 -3 119 -27 38 -77 58 -114 45z m56 -23 c37 -15 53
-38 53 -80 0 -65 -53 -101 -113 -76 -41 17 -48 27 -49 73 -1 28 6 42 31 64 36
32 40 33 78 19z"/>
<path d="M2710 1788 c0 -5 5 -8 10 -8 6 0 10 -34 10 -81 0 -65 -3 -84 -17 -94
-13 -10 1 -12 74 -12 l91 -1 4 34 c5 39 -3 44 -17 12 -7 -17 -20 -24 -47 -26
l-38 -3 0 40 c0 31 4 41 16 41 9 0 18 -9 21 -20 9 -34 20 -22 19 20 -1 41 -9
52 -20 25 -3 -8 -12 -15 -21 -15 -11 0 -15 11 -15 40 0 39 1 40 36 40 27 0 37
-5 41 -20 8 -29 21 -25 15 5 -3 19 -11 25 -31 26 -105 4 -131 3 -131 -3z"/>
<path d="M2246 1618 c-4 -24 -9 -53 -13 -65 -3 -13 -1 -23 3 -23 5 0 10 12 11
26 0 15 7 30 15 35 7 5 8 9 2 9 -6 0 -9 13 -6 30 2 17 2 30 -1 30 -2 0 -7 -19
-11 -42z"/>
<path d="M702 1565 c0 -11 3 -29 8 -40 11 -25 11 1 0 35 -6 20 -8 21 -8 5z"/>
<path d="M2276 1493 c-11 -11 -6 -23 9 -23 8 0 15 4 15 9 0 13 -16 22 -24 14z"/>
<path d="M640 1480 c0 -5 7 -10 15 -10 8 0 15 5 15 10 0 6 -7 10 -15 10 -8 0
-15 -4 -15 -10z"/>
<path d="M2209 1453 c-19 -59 -74 -165 -111 -214 -41 -53 -51 -69 -44 -69 24
0 154 225 170 293 9 40 0 33 -15 -10z"/>
<path d="M729 1448 c38 -99 79 -171 139 -244 47 -57 39 -32 -9 28 -43 55 -119
197 -119 223 0 8 -4 15 -10 15 -6 0 -6 -9 -1 -22z"/>
<path d="M730 1275 c0 -8 5 -15 10 -15 6 0 10 7 10 15 0 8 -4 15 -10 15 -5 0
-10 -7 -10 -15z"/>
<path d="M2190 1275 c0 -8 5 -15 10 -15 6 0 10 7 10 15 0 8 -4 15 -10 15 -5 0
-10 -7 -10 -15z"/>
<path d="M617 976 c-28 -22 -28 -23 -9 -46 26 -33 46 -18 37 28 -6 32 -5 34 9
23 9 -7 13 -18 9 -24 -3 -6 -1 -7 5 -3 17 10 15 24 -6 35 -12 7 -24 3 -45 -13z
m21 -35 c3 -8 -1 -12 -9 -9 -7 2 -15 10 -17 17 -3 8 1 12 9 9 7 -2 15 -10 17
-17z"/>
<path d="M2259 974 c-24 -29 26 -79 55 -55 17 14 23 56 6 46 -5 -3 -7 -12 -4
-19 7 -18 -8 -27 -26 -16 -12 7 -12 12 3 28 17 19 14 32 -8 32 -7 0 -18 -7
-26 -16z m25 -15 c-3 -5 -10 -7 -15 -3 -5 3 -7 10 -3 15 3 5 10 7 15 3 5 -3 7
-10 3 -15z"/>
<path d="M390 625 c-135 -135 -240 -245 -235 -245 13 0 491 478 484 484 -3 3
-115 -105 -249 -239z"/>
<path d="M2545 620 c132 -132 244 -240 250 -240 5 0 -98 108 -230 240 -132
132 -244 240 -250 240 -5 0 98 -108 230 -240z"/>
<path d="M2705 310 c-3 -5 -1 -10 4 -10 6 0 11 5 11 10 0 6 -2 10 -4 10 -3 0
-8 -4 -11 -10z"/>
<path d="M2882 265 c0 -16 2 -22 5 -12 2 9 2 23 0 30 -3 6 -5 -1 -5 -18z"/>
<path d="M2902 260 c0 -14 2 -19 5 -12 2 6 2 18 0 25 -3 6 -5 1 -5 -13z"/>
<path d="M2920 260 c0 -11 4 -20 9 -20 5 0 7 9 4 20 -3 11 -7 20 -9 20 -2 0
-4 -9 -4 -20z"/>
<path d="M2852 254 c-7 -8 -8 -14 -3 -14 10 0 25 19 20 25 -2 1 -10 -3 -17
-11z"/>
<path d="M2805 250 c-3 -5 -1 -10 4 -10 6 0 11 5 11 10 0 6 -2 10 -4 10 -3 0
-8 -4 -11 -10z"/>
<path d="M2525 120 c-16 -7 -17 -9 -3 -9 9 -1 20 4 23 9 7 11 7 11 -20 0z"/>
<path d="M1905 70 c-3 -5 -1 -10 4 -10 6 0 11 5 11 10 0 6 -2 10 -4 10 -3 0
-8 -4 -11 -10z"/>
<path d="M2002 50 c0 -19 2 -27 5 -17 2 9 2 25 0 35 -3 9 -5 1 -5 -18z"/>
<path d="M2650 50 c0 -16 4 -30 8 -30 5 0 7 13 4 30 -2 17 -6 30 -8 30 -2 0
-4 -13 -4 -30z"/>
<path d="M1961 57 c0 -10 -11 -22 -23 -27 -13 -5 -16 -9 -8 -9 25 -1 42 15 37
35 -4 17 -5 17 -6 1z"/>
<path d="M2241 34 c0 -11 3 -14 6 -6 3 7 2 16 -1 19 -3 4 -6 -2 -5 -13z"/>
<path d="M2285 30 c-3 -5 -1 -10 4 -10 6 0 11 5 11 10 0 6 -2 10 -4 10 -3 0
-8 -4 -11 -10z"/>
<path d="M2095 20 c-3 -6 1 -7 9 -4 18 7 21 14 7 14 -6 0 -13 -4 -16 -10z"/>
<path d="M2368 23 c7 -3 16 -2 19 1 4 3 -2 6 -13 5 -11 0 -14 -3 -6 -6z"/>
</g>
</svg>
